<?xml version="1.0" encoding="UTF-8"?>
<svg id="Layer_2" data-name="Layer 2" xmlns="http://www.w3.org/2000/svg" viewBox="0 0 95.09 97.6">
  <g id="Layer_1-2" data-name="Layer 1">
    <g>
      <g>
        <path d="M82.28,18.92l-.59-.76c-.93-.39-1.36-.27-2.2.43l-15.32,15.75,1.04-4.33c1.76-7.79,1.72-19.15-2.42-25.86-.98-1.58-2.14-3.27-3.53-1.23l-7.95,25.47c-.54-1.96-.71-4.09-1.21-6.06-2.2-8.79-7.16-18-14.33-21.52-1.6-.78-3.48-1.79-3.93,1.13l2.54,11.86c-.36.53-.25.28-.52.09-.07-.05-.13-.09-.2-.14.29.71.43,1.48.41,2.25.05.14.1.27.16.41,4.92,5.01,9.21,10.15,12.96,16.16,2.86,4.59,4.82,9.29,6.53,14.19.06.01.11.03.17.04,2.15-2.84,5.22-5.09,8.38-6.94,5.58-3.28,12.56-7.01,19.04-7.93,1.19-4.14,1.63-8.55.97-13.01Z" fill="#2eafaf"/>
        <path d="M77.79,32.68c1.02-2.81,1.66-5.79,1.76-8.92l-14.16,14.32c3.86-2.14,8.16-4.23,12.4-5.4Z" fill="#2eafaf" opacity=".4"/>
        <path d="M54.63,44.09c3.27-2.57,4.98-6.21,6.43-10.48,2.68-7.94,3.3-17.87.01-25.69l-9.22,29.69c-.14,1.32,2.47,4.91,2.78,6.48Z" fill="#2eafaf" opacity=".4"/>
        <path d="M48.53,31.67c-1.01-10.66-4.91-21.55-12.91-26.91l2.71,12.97c3.56,4.19,6.59,8.74,9.62,13.46.15.23.32.86.58.48Z" fill="#2eafaf" opacity=".4"/>
      </g>
      <polygon points="28.59 12.03 18.07 20.47 5.78 41.65 2.37 58.14 2.37 71.86 6.22 83.71 15.48 93.81 32.88 95.85 45.62 90.52 48.88 88.3 54.5 93.07 63.39 95.11 73.16 93.07 81.9 83.71 88.71 71.12 92.71 58.14 92.71 44.46 91.2 33.87 89.16 31.73 80.41 33.21 66.35 37.8 57.46 44.46 53.34 47.35 47.54 32.91 40.16 23.57 34.81 16.03 28.59 12.03" fill="#2eafaf" opacity=".4"/>
      <g>
        <path d="M29.02,9.86c1.77,1,3.46,2.31,5.01,3.62,8.17,6.9,14.77,16.35,18.6,26.35.61,1.6,1.11,3.24,1.68,4.86,8.04-7.45,18.56-12.64,29.47-14.22,1.64-.24,4.4-.64,5.98-.46s2.21,2.78,2.64,4.07c1.14,3.4,1.84,6.94,2.31,10.49l.37,4.06v4.92l-.27,3.36c-1.73,17.66-16.13,45.58-37.84,39.02-3.42-1.03-6.54-2.88-9.38-5.02-3.41,3.1-7.68,5.13-12.2,6.04l-4.85.65h-4.03l-2.63-.28c-14.55-1.93-22.13-12.86-23.6-26.8l-.27-3.27c.05-1.76-.06-3.53,0-5.28C.66,44.29,7.99,27.6,20.83,15.5c2.2-2.07,4.68-4.13,7.3-5.64h.9ZM37.53,92.41c4.96-1.54,9.06-5.06,11.65-9.52,5.23-9.02,4.77-22.31,2.64-32.22-3.09-14.44-11.45-27.78-23.27-36.59C15.76,23.71,7.02,38.54,4.6,54.42c-1.56,10.29-1.38,23.76,5.85,31.99,2.41,2.75,5.55,4.77,9,6-.47-1-1.12-1.92-1.6-2.92-1.85-3.88-3.42-10.55-3.59-14.85-.11-2.92,3.18-3.06,3.72-1.03.26.96.25,2.39.41,3.44.77,5.05,3.06,15.8,9.26,16.7,7.08,1.03,9.96-9.93,10.84-15.11,2.07-12.2.97-27.03-1.34-39.16-.18-.94-.78-2.78-.78-3.61,0-1.78,2.28-2.66,3.4-1.25.46.58.6,1.72.76,2.46,2.46,10.85,3.32,24.14,2.55,35.23-.48,6.84-1.72,14.31-5.55,20.1ZM88.27,33.87c-12.29.82-24.08,6.34-32.79,14.94-.16.36.37,2.3.46,2.85,1.69,9.74,2.01,21.04-2.02,30.25-.9,2.07-2.07,4.01-3.4,5.82,3.08,4.95,9.06,1.15,12.25-1.63,8.13-7.07,15.62-20.83,19.74-30.76.33-.79.94-2.91,1.46-3.4,1.38-1.29,3.55-.13,3.2,1.8-.22,1.18-1.31,3.51-1.82,4.71-3.65,8.63-9.21,18.33-15.24,25.5-2.85,3.39-6.24,6.77-10.29,8.64.02.14.13.14.23.17.43.14,1.49.25,1.96.28,9.31.57,16.07-5.94,20.71-13.22,7.08-11.12,9.9-24.19,7.78-37.29-.48-2.94-1.26-5.84-2.22-8.66Z" fill="#2eafaf"/>
        <path d="M21.57,23.58c1.24-.15,2.32.91,2.16,2.16-.11.9-.88,2.59-1.18,3.57-2.13,7.03-3.49,14.2-4.27,21.51-.13,1.19-.12,2.49-.27,3.67-.35,2.77-3.82,2.24-3.86,0-.03-1.72.35-4.22.56-5.99.83-7.22,2.28-14.52,4.55-21.41.41-1.24.78-3.32,2.31-3.51Z" fill="#2eafaf"/>
        <path d="M71.39,47.23c-3.28,3.3-6.2,6.92-9.12,10.53-1.58,1.11-3.59-.39-2.93-2.21.27-.73,2.35-3.16,2.98-3.92,3.42-4.17,7.36-8.31,11.45-11.82.94-.8,2.73-2.43,3.73-2.98,1.96-1.07,3.86,1.39,2.31,3.03-2.97,2.27-5.8,4.73-8.43,7.37Z" fill="#2eafaf"/>
      </g>
    </g>
  </g>
</svg>