<?xml version="1.0" encoding="UTF-8"?>
<svg id="Layer_2" data-name="Layer 2" xmlns="http://www.w3.org/2000/svg" viewBox="0 0 88.61 77.11">
  <g id="Layer_1-2" data-name="Layer 1">
    <g>
      <path d="M22.37,1.74l1.85,9.91,64.4.04v.04l-7.63,34.52c-.22.98-1.08,1.67-2.08,1.67h-45.48q-.66.77-2.1,2.48l-.08.08h.18s46.37,0,46.37,0c3.52.24,3.52,5.1.09,5.42H28.57c-1.03,0-1.91-.74-2.09-1.75L17.5,5.46l-.13-.05H2.63c-.96-.07-1.85-.62-2.29-1.47-.11-.22-.2-.4-.26-.63C.02,3.13,0,2.95,0,2.76v-.34c.07-.48.17-.63.33-.94.26-.5.69-.91,1.2-1.17.12-.06.25-.11.39-.14l.37-.1c.17-.04.35-.07.53-.07h17.45c1.03,0,1.91.73,2.09,1.74ZM81.85,17.06H25.18l4.77,25.49h46.3s5.6-25.49,5.6-25.49Z" fill="#fef6f0"/>
      <path d="M35.75,77.08c-.37.03-1.01.03-1.39,0-5.87-.48-9.61-6.69-7.21-12.11,2.72-6.13,11.14-6.94,14.97-1.41s.16,12.97-6.38,13.52ZM38.26,68.46c0-1.78-1.44-3.22-3.22-3.22s-3.22,1.44-3.22,3.22,1.44,3.22,3.22,3.22,3.22-1.44,3.22-3.22Z" fill="#fef6f0"/>
      <path d="M69.98,77.08c-.37.03-1.02.03-1.39,0-5.91-.5-9.61-6.81-7.13-12.21,2.76-6.02,11.05-6.79,14.87-1.37s.23,13.04-6.35,13.59ZM72.51,68.46c0-1.77-1.44-3.21-3.21-3.21s-3.21,1.44-3.21,3.21,1.44,3.21,3.21,3.21,3.21-1.44,3.21-3.21Z" fill="#fef6f0"/>
      <path d="M2.55,0l-.84.22C1.14.46.62.91.33,1.48.17,1.79.15,2.11,0,2.42V0h2.55Z" fill="#fef6f0"/>
    </g>
  </g>
</svg>