<?xml version="1.0" encoding="UTF-8"?>
<svg id="Layer_2" data-name="Layer 2" xmlns="http://www.w3.org/2000/svg" viewBox="0 0 98.48 95.94">
  <g id="Layer_1-2" data-name="Layer 1">
    <g>
      <path d="M68.91,79.22l11.97-1.88,11.65-10.79,4.45-11.3-.86-12.67-4.62-9.06-6.34-5.78-6.17-3.83-7.57-2.24-5.7-4.59-2.96-2.93-4.1,5.65-2.79,3.08s1.03-12.16-8.39-21.07l-2.91,24.15S35.83,6.6,23.5,6.78l10.98,25.04s-15.26-13.57-30.68-6.2l10.96,6.2-4.56,2.33-4.31,1.24-2.09,7.86-2.23,9.59v8.91l1.43,8.56,5.93,10.96s11.82,15.24,35.8,13.19c0,0,15.29-2.4,24.17-15.24Z" fill="#fef6f0"/>
      <path d="M47.05,0c6.65,4.37,9.66,12.32,10.03,20.06l2.09-2.92c.85-1.09,1.59-4.77,3.3-4.51.55.08,4.11,3.8,5.08,4.54,3.48,2.63,6.11,3.08,10,4.51,9.93,3.65,17.29,11.33,19.92,21.69l1,6.58c-.02.56.03,1.14,0,1.71-.96,16.34-13.45,29.63-30.25,29.71-9.03,13-23.29,16.96-38.45,13.29C3.29,88.24-3.98,67.77,1.92,42.67c1.51-6.44,2.1-8.45,8.76-10.45.3-.09.38.13.31-.43l-8.74-4.82c-1.41-1.97.48-2.76,2.05-3.48,7.02-3.22,15.86-1.64,22.56,1.71,1.51.75,2.87,1.82,4.4,2.53L21.75,7.68c-.25-2.15,1.55-2.05,3.16-1.86,6.81.77,13.53,7.11,16.9,12.76l1.83,3.18,1.3-19.93c.17-1,.39-1.38,1.26-1.83h.85ZM46.2,29.45l7.89-6.51c.11-6.52-1.45-13.45-6.08-18.24l-1.81,24.75ZM42.78,34.14c.74-3.81-.22-7.09-1.74-10.53-2.82-6.4-8.25-12.42-15.12-14.43l11.12,23.34c.68.84,4.6.97,5.73,1.62ZM70.52,78.09c24.23-2.14,33.48-32.46,15.05-48.44-6.02-5.22-12.81-5.19-18.96-9.42-1.38-.95-2.54-2.16-3.88-3.16-1.85,3.29-4.14,6.33-7.05,8.74-3.51,2.9-7.6,4.92-9.91,9.18,9.19,2.69,20,6.55,27.31,12.91,4.79,4.17,6.47,6.72,4.8,13.13-1.55,5.94-4.38,11.75-7.36,17.07ZM31.26,31.58c-6.97-5.25-16.08-8.54-24.75-5.76l9.5,5.32c4.92-.22,9.69.14,14.56.59.24.02.73.25.68-.15ZM16.92,34.2c-3.05.22-10.57,1.36-11.01,5.22-.26,2.27,2.65,5.37,4.22,6.77,11.98,10.7,43.87,19.37,59.36,15.62,5.41-1.31,8.41-4.03,4.12-9.12-10.21-12.11-41.42-19.61-56.7-18.5ZM10.99,50.79l-.9,8.81c-.61.96-1.47,1.35-2.41.58-.79-.65-.58-2.1-.54-3.1.1-2.79.81-5.7,1.05-8.48l-3.49-3.78c-3.6,14.82-2.1,31.09,11.14,40.5,15.37,10.92,37.41,10.88,49.44-4.89,2.54-3.33,7.84-12.55,8.45-16.52.02-.15.04-.37-.11-.32l-4.05,1.5c-1.41,3.6-2.89,7.21-4.77,10.59-.52.92-2.15,3.99-3.02,4.25-1.19.36-2.25-.87-1.83-2.05,2.36-3.94,4.71-7.99,6.09-12.37-16.59,1.05-33.13-3.44-48.01-10.46-.11,1.86-.55,3.8-.65,5.64-.11,2.14.27,4.78-.01,6.82-.31,2.25-2.95,2.24-3.19-.61-.17-2.08.06-5.13.22-7.26s.53-4.13.87-6.16l-4.28-2.7Z" fill="#26180f"/>
      <path d="M61.72,32.48c6.81-1.17,6.92,7.79.36,7.21-4.38-.38-4.62-6.48-.36-7.21ZM61.82,35.68c-.95.87,1.59,1.49,2.08.48-.08-.9-1.57-.94-2.08-.48Z" fill="#26180f"/>
      <path d="M72.17,29.92c4.31-.73,7.15,3.86,3.46,6.44-2.18,1.53-5.61.9-6.54-1.75-.74-2.1.99-4.34,3.09-4.69ZM74.14,33.08c-.81-.34-2.23-.37-2.13.85.96.34,2.19.46,2.13-.85Z" fill="#26180f"/>
      <path d="M64.7,24.8c6.64-1.15,7.02,7.93.16,7.2-4.22-.45-4.43-6.46-.16-7.2ZM65.34,27.78c-1.48.3-.58,1.47.75,1.2,1.48-.3.58-1.47-.75-1.2Z" fill="#26180f"/>
      <path d="M18.84,36.34c12.63-.52,38.8,6.36,48.89,14.15,4.31,3.33,5.79,7.84-.79,9.41-10.02,2.39-30.49-3.21-40.21-7.03-4.35-1.71-14.29-5.92-16.13-10.32-2.11-5.03,4.86-6.06,8.25-6.2ZM16.71,39.54c-5.66.58-3.16,2.84-.15,4.93,9.89,6.88,34.88,13.72,46.81,12.93.89-.06,4.76-.52,4.99-1.43.38-1.51-4.6-4.54-5.81-5.22-10.97-6.25-33.35-12.49-45.85-11.21Z" fill="#26180f"/>
    </g>
  </g>
</svg>