<?xml version="1.0" encoding="UTF-8"?>
<svg id="Layer_2" data-name="Layer 2" xmlns="http://www.w3.org/2000/svg" viewBox="0 0 91.7 92.12">
  <g id="Layer_1-2" data-name="Layer 1">
    <g>
      <path d="M30.01,8.8S-9.82,27.6,5.79,83.41c0,0,17.26,15.09,55.07,0,0,0,17.31-9.08,22.09-23.14l4.91,3.42s6.43-29.06-11.76-44.53c0,0-21.16-24.98-48.36-15.41l2.27,5.06Z" fill="#fef6f0"/>
      <path d="M44.28,0l4.89.78c17.96,3.65,37.23,22.58,41.45,40.39,2,8.43,1.18,16.71-2.11,24.68l-4.49-2.7c-7.78,16.3-24.58,24.6-41.69,27.65-10.55,1.88-30.58,3.13-37.97-6.33-2.07-2.64-3.53-9.42-3.94-12.79-.14-1.2-.09-2.51-.38-3.67.1-2.75-.13-5.53,0-8.28.18-3.77.8-7.97,1.5-11.73C4.59,31.49,12.43,15.54,28.09,7.91c-.28-.69-2.97-4.07-2.69-4.49C29.5,1.77,33.79.39,38.24.17l.29-.17h5.75ZM86.54,60.27c2.32-7.44,1.79-15.32-.89-22.58-5.22-14.12-20.54-28.94-35.21-32.78-6.47-1.69-13.04-1.51-19.46.31-.21.21,1.46,2.23,1.71,2.52,3.54,4.31,9.72,9.52,15.65,9.17,1.61-.09,3.31-.72,4.95-.72-2.05,2.49-4.27,4.84-6.01,7.57-4.19,6.58-6.02,14.72-3.3,22.25,7.29,2.42,15.07.99,21.52-2.94,3-1.83,5.53-4.26,8.29-6.37-.48,3.36-1.2,5.86-.13,9.21,1.92,5.99,7.66,11.18,12.89,14.35ZM30.59,10.81c-7.02,3.26-13.17,8.82-17.21,15.4C7.04,36.55,3.59,51.68,3.66,63.76c0,.59.33,1.4.16,2.09l1.94-5.16c2.61-5.87,6.23-11.62,11.1-15.89,1.21-1.06,4.68-4.21,6.08-2.3,1.63,2.22-2.21,3.82-3.66,5.08-7.84,6.84-13.17,18.87-13.48,29.24l1.95-3.9c2.67-4.63,5.89-9.38,9.92-12.92,1.21-1.07,3.42-3.29,4.76-1.16,1.17,1.86-1.01,2.68-2.06,3.68-4.64,4.37-10.48,11.98-11.96,18.26-.47,2.01-.53,2.7,1.53,3.51,9.42,3.69,27.11-5.66,33.36-12.86,1.2-1.38,2.83-5.27,5.01-3.58,1.52,1.19.03,2.94-.74,4.06-5.62,8.13-16.97,13.95-26.47,15.88-.03.26.47.32.64.34,20.02,2.27,46.05-5.4,57.15-23.21.35-.56,2.02-3.31,2.05-3.71.04-.42-2.06-1.9-2.49-2.3-4.07-3.82-7.86-8.45-8.81-14.13-6.53,4.58-13.96,6.94-22,5.91-1.28-.16-5.69-1.12-6.51-1.95-.7-.71-1.7-4.94-1.86-6.06-.88-6.44.28-12.52,3.3-18.24.74-1.41,1.74-2.69,2.43-4.13-5.79-1.16-10.17-4.87-14.13-8.99-.14-.15-.22-.34-.28-.53Z" fill="#26180f"/>
    </g>
  </g>
</svg>