<?xml version="1.0" encoding="UTF-8"?>
<svg id="Layer_2" data-name="Layer 2" xmlns="http://www.w3.org/2000/svg" viewBox="0 0 101.81 88.65">
  <g id="Layer_1-2" data-name="Layer 1">
    <g>
      <path d="M33.89,28.19s-17.78,1.54-23.25,16.59c0,0-5.24-.71-8.42,7.67l1.19,7.76,6.22,11.72s10.89,19.06,30.74,14.65c0,0,21.79-3.93,27.31-10.93l1.74,2.68,7.03,2.08,4.14-2.08,2.03-3.56,1.76-2.83s22.31-16.21,14.5-45.47c0,0-4.81-21.69-33.37-20.98,0,0-9.05,0-14.13-4.06,0,0-3.04,9.17-6.26,10.58,0,0-7.63,2.82-9.57,13.4l-1.65,2.8" fill="#b41e8e" opacity=".4"/>
      <g>
        <path d="M101.81,33.23v10.46l-1.59,8.36c-2.68,9.1-8.37,16.79-15.95,22.41-.77,1.43-.37,2.85-1.16,4.37-2.98,5.73-12.06,2.64-16.29-.01-6.15,4.01-12.98,6.89-20.18,8.48l-8.66,1.29c-2.14-.13-4.46.17-6.57,0-9.48-.77-18.01-6.63-22.82-14.62-2.3-3.83-6.26-10.73-7.8-14.76-2.67-6.96,1.6-14.24,8.82-15.56,4.09-9.03,13.3-15.05,23.21-15.57,1.39-4.25,1.82-8.77,4.85-12.28s7.23-3.71,9.58-8.68c.62-1.31,1.9-6.26,2.64-6.8.44-.32.96-.4,1.49-.27,3.63,1.84,7.14,3.66,11.2,4.4,4.69.86,9.3.1,14,.98,13.27,2.47,23.96,13.97,25.04,27.47l.19.33ZM36.34,27.9h6.57c.21-2.36.72-4.7,1.46-6.95l3.03.83-1.21,6.12c11.72-.6,21.16,8.51,24.83,18.97,3.71,1.32,10.75,3.43,12.27,7.43.76,1.99.64,4.13-.53,5.94-2.52,3.9-6.58,1.76-8.96,7.04-1.39,3.07-1.95,6.59-4.41,9.12,2.2,1.27,6.73,2.93,9.2,2.22,2.27-.65,1.63-2.89,2.2-4.57.86-2.55,3.94-4.06,5.85-5.85,16.48-15.4,17.8-49.39-6.21-58.19-8.36-3.06-16.02-.57-24.63-4.09-.61-.25-3.79-2.02-4.05-1.8-.9,4.03-2.67,7.58-6.09,10.01-1.38.98-2.97,1.6-4.27,2.71-3.45,2.94-3.77,6.99-5.03,11.07ZM11.92,46.76c13.42,5.47,27.89,7.86,42.38,6.56,4.68-.42,9.27-1.46,13.92-2.09.26-.06.33-.23.35-.47.05-.63-.81-3.11-1.08-3.85-2.54-6.86-8.71-13.51-16-15.18-5.06-1.17-17.84-.81-22.99.33-7.44,1.66-14.03,7.55-16.58,14.7ZM72.05,50.66c-.33.44,1.16,2.72-.98,3.43-16.05,3.45-31.7,4.09-47.7,0-2.18-.56-13.91-4.19-14.83-5.48-.22-.31-.31-.65-.31-1.02-.63.2-2.96,1.62-2.85,2.33,4.75,5.67,11.75,7.73,18.82,8.88,8.62,1.41,18.27,1.51,27.03,1.7,5.48.12,9.61.72,14.98-1.22,1.57-.57,3-1.43,4.56-2,3.02-1.09,6.28-1.6,9.49-1.49-1.43-2.9-5.44-3.86-8.21-5.12ZM79.23,59.07c-6.15-.23-10.92,3.77-16.78,4.66-4.4.67-9.07.17-13.48.05-9.74-.27-20.35-.38-29.83-2.59-5.97-1.4-11.32-3.69-15.53-8.27-.9,2.74.27,5.01,1.43,7.38,6.06,12.41,11.91,23.97,27.51,25.01,9.36.62,25.24-3.49,32.62-9.43,5.33-4.29,4.22-12.11,10.1-15.13,1.33-.69,2.95-.64,3.97-1.67Z" fill="#b41e8e"/>
        <path d="M80.47,47.59l-3.28.21c-1.06-14.36-8.14-27.44-19.07-36.63l2.14-2.53c11.59,9.71,19.25,23.72,20.22,38.95Z" fill="#b41e8e"/>
        <path d="M27.93,78.75c10.56.36,21-1.74,30.47-6.36l1.36,2.96c-9.76,4.97-20.86,7.1-31.83,6.68v-3.28Z" fill="#b41e8e"/>
        <path d="M69.96,48.6v4.32s-40.56,6.81-59.81-5.33l-1.38-2.73-5.12,4.01,4.85,6.51,9.97,3.05,13.15,2.25,18,1.07h14.12l8.72-3.46,8.02-.28,1.54-3.88-4.15-2.9-7.89-2.63Z" fill="#b41e8e"/>
      </g>
    </g>
  </g>
</svg>