<?xml version="1.0" encoding="UTF-8"?>
<svg id="Layer_2" data-name="Layer 2" xmlns="http://www.w3.org/2000/svg" viewBox="0 0 106.76 83.58">
  <g id="Layer_1-2" data-name="Layer 1">
    <g>
      <g opacity=".4">
        <path d="M50.48,29.3s-22.34-8.41-38.63,6.01l4.68,4.12s-29.01,12.73-1.68,28.84l-4.12,3.56s40.7,30.67,61.89-16.48c0,0,3.39-15.21-22.13-26.05Z" fill="#7ab742"/>
        <path d="M96.02,52.68s16.45-16.67,7.81-36.64l-5.37,3.17s-3.07-31.54-26.88-10.57l-2.1-5.03s-42.6,24.44-4.39,59.24c0,0,12.68,10.71,30.93-10.17Z" fill="#7ab742"/>
      </g>
      <path d="M43.7,48.35s3.63,7.33-.36,10.56,10.72-3.66,10.72-3.66l2.77-1.4-7.09-2.83-6.05-2.66Z" fill="#7ab742"/>
      <path d="M82.53,37.65s-10.43-.57-12.29-6.45c-1.85-5.88-.95,12.9-.95,12.9l.3,3.6,6.83-5.5,6.11-4.55Z" fill="#7ab742"/>
      <path d="M86.95,0c1.9.45,3.61.87,5.28,1.92,5.3,3.32,7.09,9.68,7.45,15.62.1.1,1.44-1.39,1.68-1.55,4.55-3.04,4.8,7.28,5.41,9.7v5.22l-.9,5.26c-3.54,16.3-19.83,31.77-37.05,31.4-6.48,7.66-15.79,12.51-25.48,14.79l-7.26,1.19c-1.52-.07-3.07.09-4.59,0-7.26-.43-15.03-3.1-20.74-7.73-1.91-1.54-5.16-4.09-1.5-5.88.26-.13,2.23-.55,1.81-1-3.11-1.34-6.22-3.75-8.21-6.5-6.65-9.17-.68-18.94,8.42-22.96l-3.13-1.56c-1.75-2.02,1.51-4.28,2.95-5.42,10.24-8.1,24.32-9.25,36.47-5.14,2.02-9.47,7.98-18.62,16.2-23.78,1.33-.83,5.68-3.19,7.06-3.19.67,0,1.98.73,1.98,1.38v3.24c2.34-1.8,4.92-3.35,7.76-4.23.86-.27,2.23-.69,3.08-.78h3.34ZM84.83,4.24c-4.74.24-9.61,3.7-12.64,7.19-.34,9.95-1.68,19.88-1.92,29.82,0,.35-.22.71-.21,1.05.01.89,1.12,2.24,1.57,3.02l23.58-23.38c.88-7.15-1.15-18.17-10.38-17.7ZM51.51,28.81c4.31,1.71,8.34,4.06,11.98,6.91.78.61,1.48,1.41,2.2,1.98.22.18.25.47.52.11l2.18-31.96c-8.84,4.45-14.9,13.34-16.88,22.96ZM101.97,21.72l-.63.31-28.05,27.47c1.06,4.71.55,9.53-1.77,13.78,19.04-2.17,34.39-22.52,30.45-41.56ZM13.76,72.69c6.86,5.65,16.21,7.39,24.89,6.23,20.23-2.69,45.04-22.59,21.39-40.58-12.14-9.24-31.61-12.92-44.76-3.72-.27.19-1.53.91-1.1,1.2l46.28,16.51c1.85,1.57.56,3.46-1.39,4.01l-45.31,16.34ZM52.75,53.89l-35.55-12.34c-4.71,1.48-10.5,4.7-12.38,9.55-3.07,7.92,5.91,13.99,12.38,15.94l35.04-12.72.51-.43Z" fill="#7ab742"/>
      <path d="M39.15,34.09c1.74-.29,7.78,1.79,9.7,2.51,3.41,1.28,9.36,4.1,11.74,6.83,1.53,1.75.25,4.05-1.95,3.63-1.53-.91-2.69-2.11-4.23-3.08-3.13-1.98-6.78-3.39-10.3-4.51-1.38-.44-4.71-.99-5.68-1.62-1.46-.94-1.1-3.45.73-3.76Z" fill="#7ab742"/>
    </g>
  </g>
</svg>