<?xml version="1.0" encoding="UTF-8"?>
<svg id="Layer_2" data-name="Layer 2" xmlns="http://www.w3.org/2000/svg" xmlns:xlink="http://www.w3.org/1999/xlink" viewBox="0 0 654.89 276.41">
  <defs>
    <linearGradient id="linear-gradient" x1="245.69" y1="195.12" x2="147.71" y2="25.4" gradientUnits="userSpaceOnUse">
      <stop offset="0" stop-color="#bf692c"/>
      <stop offset="1" stop-color="#f68b42"/>
    </linearGradient>
    <linearGradient id="linear-gradient-2" x1="410" y1="189.22" x2="313.81" y2="22.61" xlink:href="#linear-gradient"/>
    <linearGradient id="linear-gradient-3" x1="535.09" y1="194.7" x2="431.01" y2="14.43" xlink:href="#linear-gradient"/>
    <linearGradient id="linear-gradient-4" x1="650.02" y1="180.02" x2="549" y2="5.05" xlink:href="#linear-gradient"/>
    <linearGradient id="linear-gradient-5" x1="110.37" y1="183.88" x2="19.73" y2="26.89" xlink:href="#linear-gradient"/>
  </defs>
  <g id="logos">
    <g>
      <g>
        <polygon points="5.97 18.94 118.88 18.94 127.59 40.34 132.88 18.94 273.9 18.94 241.36 100.4 251.88 144.43 291.1 153.4 294.49 18.94 354.05 18.94 366.07 38.59 368.04 18.94 423.12 1.9 474.54 18.98 524.47 6.53 642.57 23.68 651.16 74.45 629.33 71.82 649.39 198.17 574.7 198.43 560.59 169.2 554.04 198.9 432.43 186.2 348.03 186.5 300.6 198.9 204.87 198.9 188.6 158.17 180.36 186.64 5.97 186.64 5.97 18.94" fill="#26180f"/>
        <g>
          <path d="M5.11,21.39c.11-3.1-.06-1.99-.07-2.45-.16,5.18.12,2.32.07,2.45Z" fill="#26180f"/>
          <polygon points="4.58 72.51 4.44 71.61 4.73 79.15 4.58 72.51" fill="#26180f"/>
          <path d="M3.9,120.32c1.02-4.52.06-17.32.51-25.84l.2-1.4-.59-3.84c-.1,10.35.23,23.8-.13,31.09Z" fill="#26180f"/>
          <path d="M1.09,145.82c.49-1.57.25,5.51.29-5.94-.06.58-.09.74-.14,1.08-.02,1.03-.06,2.45-.15,4.87Z" fill="#26180f"/>
          <path d="M1.24,140.95c.1-5.04-.45,3.29,0,0h0Z" fill="#26180f"/>
          <path d="M.96,164.2l-.28-6.63c-.31,1.39-.53,7.29-.68,5.1.06,6.8.4,5.4.96,1.54Z" fill="#26180f"/>
          <path d="M1.76,170.49l-.12-3.44c-.13.6-.2,1.51.12,3.44Z" fill="#26180f"/>
          <path d="M1.39,159.76l.24,7.29c.22-.96.63-1.06-.08-3.35.36.6.03-.84-.17-3.94Z" fill="#26180f"/>
          <path d="M1.66,155.64c.34-3.72.58-8.53.87-1.87.05-12.69-.76-10.82-.87,1.87Z" fill="#26180f"/>
          <path d="M4.91,122.76l.32-4.97-.3-4.3c.15,2.15-.34,9.58-.02,9.28Z" fill="#26180f"/>
          <path d="M24.84,193.29c.41-.31-2.23-.88-2.72-1.28l-4.9.26c2.52.26,7.29.55,7.62,1.02Z" fill="#26180f"/>
          <path d="M22.12,192.01l7.33-.41c-6.55-.17-7.74.07-7.33.41Z" fill="#26180f"/>
          <polygon points="3.17 171.67 2.37 159.63 3.16 173.99 3.17 171.67" fill="#26180f"/>
          <polygon points="52.84 193.93 48.68 194.62 56.08 193.59 52.84 193.93" fill="#26180f"/>
          <path d="M71.4,194.16c-3.07.62,4.22,1.25.96,1.61,5.04,0,9.35-.51,13.23-.99-4.12.23-8.51.06-14.19-.62Z" fill="#26180f"/>
          <path d="M92.11,194.09c-2.06.14-4.19.41-6.51.69,2.19-.12,4.34-.32,6.51-.69Z" fill="#26180f"/>
          <path d="M41.93,191.95c.57.21,1.66.75,5.77,1.05l-2.88-.99c-.88-.02-1.88-.04-2.89-.06Z" fill="#26180f"/>
          <path d="M44.72,191.98l.1.03c3.13.08,5.3.13,6.23.15-.8-.02-2.7-.08-6.33-.18Z" fill="#26180f"/>
          <path d="M41.21,191.94c.27,0,.46,0,.73.02-.28-.1-.45-.13-.73-.02Z" fill="#26180f"/>
          <path d="M8.77,190.42c.81-.05,1.74-.1,2.71-.15.47-.03.96-.05,1.44-.08.35-.03.7-.05,1.05-.08,1.31-.11,2.57-.23,3.41-.36,1.7-.26,1.77-.58-2.57-.98-1.54.28-1.07.53-1.03.79.02.13-.06.27-.55.41-.61.14-1.99.29-4.46.44Z" fill="#26180f"/>
          <path d="M37.63,190.73l-7.79-.31c.15.24,1.56.6-.58.82l8.36-.51Z" fill="#26180f"/>
          <polygon points="41.44 190.49 37.63 190.73 40.51 190.85 41.44 190.49" fill="#26180f"/>
          <path d="M78.77,192.9c3.36-.4,7.04-.39,11.2-.4-4.45-.27-9.06-.44-13.43-.49-.62.31-2.54.86,2.23.89Z" fill="#26180f"/>
          <path d="M62.22,192.36c.23-.01.53-.03.75-.04-.46-.09-.83-.12-.75.04Z" fill="#26180f"/>
          <path d="M130.88,193.02c-.23-.07-.42-.14-.66-.22-.05.07-.09.13-.15.2l.81.02Z" fill="#26180f"/>
          <path d="M75.79,191.8c-3.35-.24-5.35-.02-7.26.26,2.5-.07,5.16-.1,8-.06.28-.14.33-.24-.75-.2Z" fill="#26180f"/>
          <path d="M103.52,193.77c-1.74-.25-3.72-.47-5.8-.68,1.7.36,5.18.95,5.8.68Z" fill="#26180f"/>
          <path d="M64.1,192.61c-.17.01-.32.02-.5.04,1.1.23.96.12.5-.04Z" fill="#26180f"/>
          <path d="M64.1,192.61c1.72-.12,3.08-.34,4.44-.54-2.04.05-3.93.13-5.57.25.41.08.83.19,1.13.29Z" fill="#26180f"/>
          <path d="M143.27,185.63c-.59,1.1-9.39,2.07-16.99.93-7.48.79-2.59,4.2,3.94,6.24.23-.46.23-.88,7.93-1.45-2.69-.62-17.07-1.48-10.58-2.4,10.19-.51,8.35.41,13.3,1.01-4.21-1.36,12.97-1.92,10.75-3.96l-8.94.71c-.17-.31,3.07-.81.59-1.09Z" fill="#26180f"/>
          <path d="M115.56,192.53l-3.17.09c3.61.23,6.19.67,10.95,1.55,5.27-.44,6.36-.82,6.72-1.17l-15.59-.33,1.08-.14Z" fill="#26180f"/>
          <path d="M98.18,192.44c2.47-1.05,10.08-1.46,5.42-2.68-9.29.01-6.51.86-12.06,1.27,14.99-.11-4.31.55,6.53,1.28-2.95.15-5.6.17-8.1.18,2.7.17,5.3.36,7.75.6-.14-.03-.23-.05-.34-.07h-.07s.01,0,.01-.01c-.65-.14-.86-.23-.13-.14.05-.01.23-.02.31-.02.1-.15.38-.28.68-.4,4.34.28.68.29-.68.4-.05.05-.17.1-.18.16.01,0,.04.01.06.01l15.02-.41c-3.18-.19-7.16-.21-14.21-.17Z" fill="#26180f"/>
          <path d="M22.82,186.94c.47.08.45.14.48.21.97-.11,1.34-.18-.48-.21Z" fill="#26180f"/>
          <path d="M29,187.49c-1.09.12-2,.48-5.55.37-3.08-.28.01-.42-.15-.71-2.14.24-7.49.6-.78,1.06l1.06-.11c6.05.32,13.81,1.53,12.76,1.65-1.76-.84-3.32-1.44-7.34-2.25Z" fill="#26180f"/>
          <path d="M64.02,189.53l12.51-.41-6.37-.92.32.53c-7.11-.24-5.58.41-6.46.8Z" fill="#26180f"/>
          <polygon points="132.31 193.61 130.65 194.81 137.88 193.18 132.31 193.61" fill="#26180f"/>
          <polygon points="148.56 193.67 147.96 194.76 152.25 194.15 148.56 193.67" fill="#26180f"/>
          <path d="M523.03,9.28l-3.54.99c1.68-.45,2.76-.75,3.54-.99Z" fill="#26180f"/>
          <path d="M548.41,12.48l.67-.1c-1.23-.07-1.75-.07-.67.1Z" fill="#26180f"/>
          <path d="M495.93,200.91c5.2,1.71,10.96,4.11,10.47,2.63l-1.49-1.54c-3.75-.12-6.59-.55-8.98-1.09Z" fill="#26180f"/>
          <path d="M636.91,120.96c-.01.52-.03,1.06-.04,1.59.53,1.23,1.03,2.39,1.47,3.43-.43-1.51-.92-3.22-1.43-5.02Z" fill="#26180f"/>
          <path d="M632.47,117.84l-.43-7.08c.03,1.6.16,3.88.43,7.08Z" fill="#26180f"/>
          <path d="M384.34,17.7l-3.9,1.89c6.37-2.11,3.48-1.45,3.9-1.89Z" fill="#26180f"/>
          <path d="M266.02,206.83c4.62.59,8.29.84,11.52.93-5.57-.86-10.05-2.13-11.52-.93Z" fill="#26180f"/>
          <path d="M533.11,5.56c-2.24-.24-3.2-.29-3.15-.18,2.3.25,3.61.36,3.15.18Z" fill="#26180f"/>
          <path d="M290.89,207.82c-.81-.15-1.61-.23-2.44-.36-3.38.23-6.77.41-10.9.3,4.11.64,8.82,1.05,13.34.06Z" fill="#26180f"/>
          <path d="M172.97,24.31c-.38-.05-.84-.07-1.19-.13-.12.13.41.14,1.19.13Z" fill="#26180f"/>
          <path d="M50.61,17.23c1.51-.04,3.98-.1,6.3-.16-1.13,0-3.03.04-6.3.16Z" fill="#26180f"/>
          <path d="M182.36,164.91c-1.33-3.18-.33-.46,0,0h0Z" fill="#26180f"/>
          <path d="M187.93,171.31c.07-.74.05-1.33-.22-1.5.22.36.28.88.22,1.5Z" fill="#26180f"/>
          <path d="M324.36,192.46c.1-.02.18-.04.29-.07-1.07-.02-.88-.01-.29.07Z" fill="#26180f"/>
          <path d="M195.61,161.48c.15-.33.3-.68.48-1.15l-14.72.72c.23.88.55,1.94.91,3.05-.12-.51-.34-1.32-.9-3.06l14.71-.72s-.24.53-.48,1.15Z" fill="#26180f"/>
          <path d="M196.4,160.99c-.39,1.12-.7,2.01-.99,2.85.08.48.33.15.99-2.85Z" fill="#26180f"/>
          <path d="M184.17,169.36c-.73-1.83-1.34-3.57-1.89-5.25.16.66.2.96.09.8.38.94.92,2.26,1.8,4.45Z" fill="#26180f"/>
          <path d="M294.97,147.12c-.05.29-.08.63-.14.93.19,2.47.25,3.23.28,2.85.02-.38-.02-1.88-.14-3.78Z" fill="#26180f"/>
          <path d="M566.75,168.13c-.08-.14-.15-.2-.23-.33.06.15.13.34.18.48l.05-.15Z" fill="#26180f"/>
          <path d="M572.93,178.9c-3.7-4.07-4.82-6.86-6.23-10.61l-1.59,5.31,7.82,5.3Z" fill="#26180f"/>
          <path d="M460.19,16.81l8.14,3.07c-10.16-2.69-17.33-5.21-9.73-2.18.4-.22,2.61.31,5.72,1.23,1.56.46,3.34,1.02,5.24,1.62.95.3,1.92.62,2.91.93l1.26.41.67.21.69-.16,2.08-.53c8.18-2.09,16.37-4.17,16.8-4.94l5.63-1.12c-1.6.38-1.83.52-3.41.9,10.97-2.08,7.81-2.92,21.79-6.19,2.44-.55,4.52-.99,5.58-1.17.27-.04.47-.07.59-.08.15-.02.11.02.12.04,0,.04-.44.19-1.25.43l1.29-.36c.09-.03.18-.07.27-.08l.28.02,2.77.33,5.54.65c3.21.5,2.39.62-.8.12l16.84,2.4-.13.02c2.43.15,7.92.63,10.6.87,4.24.84-2.17-.17-1.1.17l9.36,1.05c3.74.95-4.03.14-10.46-.88,8.49,2.73,7.78.79,26.42,4.52l-8.82-1.17c5.54,1.72,12.45,2.48,22.29,4.62-2.31-.7-19.69-4.5-9.53-3.31,2.83.55,6.57,1.19,12.07,1.71-.03.57,5.31,1.26,11.97,2.27l-.57.71c7.23.92,6.72.42,11,.72,8.01,1.33,9.58,2.26,11.38,3.12,3.19.56,4.29.69,4.25.58.09-.09-.97-.41-1.9-.71-.94-.31-1.8-.61-1.48-.69.16-.04.62-.03,1.51.06.62.07,1.55.18,2.88.33.24.08.52.1.7.22.02.26.04.52.07.77.04.25.09.5.13.74.09.61.18,1.22.27,1.82.37,2.41.76,4.74,1.19,7.14.86,4.79,1.89,9.82,3.19,16.16.83,7.54-.81-1.2-.68,1.53l1.83,6.49c.23,1.63-.1,1.14-.27.9.59,2.77.87,2.84,1.2,3.31.08.12.17.26.27.48.1.22.18.31.29.58.2.49.47,1.33.78,2.76.19.28.34.67.45,1.16.06.24.1.51.14.78.02.14.04.28.05.43l.02.22v.06s-.04,0-.06-.01l-.13-.03c-1.45-.29-3.3-.77-4.93-1.14-.21-.05-.41-.1-.62-.15-.35-.07-.71-.15-1.07-.22-.72-.14-1.46-.29-2.2-.44l-.68-.12-.83-.14c-.56-.09-1.12-.18-1.68-.27-1.13-.17-2.27-.35-3.41-.52-2.24-.29-4.39-.42-6.44-.56l-.76-.04c-.12,0-.27-.03-.36,0l.07.4c.1.54.2,1.07.29,1.6.2,1.06.42,2.1.65,3.1.07,1.76-.19,1.26-.52.33-.33-.91-.72-2.26-.9-1.8.49,2.91,1.02,5.5,1.42,7.63.46,2.43.65,3.22.88,4.33.45,2.07.78,3.57,1.09,4.99.65,2.83,1.29,5.32,2.93,11.33l.69,10.58c-.14-7.83,2.49,1.79,4.87,10.2.07-2.8.13-5.19.09-6.78l2.97,13.55c.04,1.69-.68.39-1.62-1.76.27.91.52,1.78.74,2.45.26,4.97-.98,2.57-2.31-.81.03-1.71.06-3.41.1-5.07-1.38-3.24-2.78-6.26-3.47-5.43.29.87.68,2.56,1.04,4.43-.36-.85-.65-1.38-.73-.95-.08.49.44,1.87,1.13,4.05l-1.11,3.36.74.66,1.62,18.09c1.76,6.28,3.72,12.11,5.73,18.89,1.01,3.39,2.03,7.02,3.05,11.06,1.02,4.02,2.05,8.57,3.02,13.47-1.09-2.59-1.66-2.63-2.2-2.39-.54.29-1.05.88-1.89.69.14-.39.2-.88.21-1.43,0-.11,0-.33-.02-.55-.02-.22-.04-.44-.06-.67-.04-.45-.1-.91-.17-1.39-.27-1.9-.72-4.01-1.24-6.27-1.03-4.51-2.29-9.62-2.91-14.92.65,5.53-.25,4.44-.71,3.07l4.28,18.58c-.34-.05-.53.18-.62.63-.05.23-.07.51-.08.85,0,.27,0,.58.01.93,0,.82.19,1.96.06,2.9.64-.08,1.11.23,1.54,1.15.21.45.41,1.03.6,1.71.1.34.19.7.28,1.09,0,.04.04.11.02.13h-.12s-.25.03-.25.03c-.18.01-.35.03-.54.04-1.56.07-3.35.16-5.05.24-.45.02-.89.05-1.32.07-.65.03-1.29.05-1.9.07-1.22.06-2.35.13-3.32.23-.24-.46.1-.92,1.68-1.23.79-.16,1.89-.28,3.39-.34.22-.02.46-.03.72-.05.22,0,.46-.02.71-.03.5-.01,1.06-.01,1.71,0-.83-.25-1.45-.38-2-.42-.27-.02-.53-.03-.78-.01h-.18s-.37.03-.37.03c-.25.02-.49.03-.73.05-1.91.17-3.59.57-5.25.98-3.34.82-6.65,1.71-11.77.83,2.31-.02,3.55.12,4.46-.34-5.38.81-18.55.15-15.46-.67h2.3c-3.83-.1-8.65-.16-13.77-.15-2.56.02-5.2.05-7.82.07-1.31.03-2.62.05-3.91.08-1.26.04-2.5.07-3.73.11-.76.06-1.51.12-2.24.17-.38.03-.75.06-1.11.08-.19.02-.37.03-.55.04l-.28.02h-.14s-.05-.05-.07-.08c-.68-1.12-1.36-2.18-2.04-3.13-.09-.12-.17-.24-.25-.35-.11-.17-.22-.33-.32-.49-.22-.34-.43-.66-.64-.96-.41-.61-.79-1.14-1.14-1.58-.7-.89-1.27-1.43-1.67-1.56.23-.28,3.58.5,4.42,1.12-5.36-5.84-10.76-11.66-16.21-17.46l2.32-.27.42,4.74c-1.55-2.71-8.2,4.47-7.29-6.26l1.28-15.21,9.6,13.93c.21.31.46.7.71,1.13-.15-.39-.3-.78-.47-1.24l-6.03-15.8-5.35,17.13c-1.01,3.24-2.18,7.4-3.01,14.2.86-2.36,4.47-5.36,3.93-2-1.11,2.14-1.83,3.59-2.37,4.73-.27.57-.49,1.06-.68,1.52-.18.44-.35.85-.53,1.27-.26.54-.52,1.12-.91,1.86-.38.73-.92,1.64-1.66,2.47.39-.6,1.23.18,1.77,1.94.13.44.26.96.33,1.5-.18.19-.44.36-.78.48-.68.25-1.73.34-2.94.19.29-.24-.11-1.16-.37-2.06-.26-.89-.43-1.75.01-1.89-.48.23-1.03.48-1.68.71-.32.11-.67.23-1.04.34l-.57.16c-.21.05-.59.08-.88.12l-7.47.96c3.7-.24.95-2.89-2.21-4.24,1.44.85-12.59-1.45-16.51-1.53l6.09,1.5c-16.4-2.35-16.78,3.26-33.09,1.36,2.06-.55,5.36-4.08-2.89-5.44-4,1.43-17.79,7.2-32.4,7.23l-2.66-1.37-11.22.12c7.21-2.21,27.21-6.21,38.02-7.33-6.07-1.52-1.58-1.45-10.81-2.37-3.15-1.37,5.19-.98,7.9-.73l-21.4-3.04c.72,2.33-16.65.44-16.03,2.4l23.56.22c.36,1.16-3.18,2.36-8.7,3.04-2.76.34-6.02.54-9.53.54-1.76,0-3.58-.06-5.44-.17-.93-.06-1.87-.13-2.81-.22l-1.42-.15-1.52-.18c-1.16-.28-1.42-.6-1.34-1.05.05-.22.17-.45.39-.69.26-.23.62-.51,1.03-.71.94-.4,1.57-.82,2.17-1.18.57-.35.97-.65.91-.85-.26.07-.68.12-1.22.16-.28.02-.55.03-.93.04-.49,0-1.01-.05-1.56.02-.78.07-1.65.15-2.56.23-.86.06-1.75.12-2.64.19-3.56.21-7.04.25-7.75-.03l6.49-1.22c-8.52-.86-13.89,3.04-24.13.87-3.53-.14-10.56-2.95-11.17-1.58,5.77,2.62,6.93,10.71,3.09,12.7-1.24-.17-18.56-2.43-22.6-3.72-5.83-2.05,8.72-4.95,3.76-6.71-.21.63-3.42,1.42-4.76,1.67-3.71-.53,1.53-1.96-6.53-1.65-1.34,2.35-16.4-.14-3.8,1.99-3.94.35-6.04.24-8.31.05-.58-.05-1.17-.09-1.8-.14-.41-.02-.83-.05-1.27-.07-.22-.01-.45-.02-.68-.03-.23,0-.46.08-.69.12-.83.19-1.74.39-2.78.63-.89.21-1.88.46-3,.77,3.24.72-6.74,7.09-14.22,9.72.3-.69-1.61-.99-2.53-1.12-7.85,1.94-13.94,3.21-19.89,4.46l-2.23.47-1.05.22c-.34.05-.67.2-1.03.14-1.49-.06-2.99-.12-4.54-.18-3.19-.1-6.56-.17-10.32-.17-1.39-.56-8.66-1.22-5.57-2.21-2.17.41-4.16,1.19-8.81,1.25-9-1.96,10.37-.33,3.51-2.69-.59,1.33-12.03,1.86-18.65,2.69,2.04,2.03,15.3.38,21.93-.47.03,2.84-11.51,5.81-27.27,7.05-12.52.65-5.43-1.81-7.6-1.42-11.76-.26-16.77.92-21.28,1.91-2.26.49-4.39.94-7.17,1.13-.35.02-.71.04-1.08.06-.23,0-.46.01-.7.02-.28,0-.57,0-.86.01-1.17.01-2.41,0-3.74-.02-1.34-.02-2.74-.09-4.23-.17-.74-.05-1.51-.09-2.3-.14h-.15s-.11,0-.11-.07l-.11-.3c-.07-.2-.14-.41-.21-.62-.14-.41-.29-.83-.43-1.26-1.5-5.8-.67-6.18.24-5.95.96.3,2.11,1.16,2.23-.16.57,1.19,1.07,2.32,1.52,3.41,1.14.08,2.3.03,3.35.08,2.1.07,4.12.23,5.92.4,3.5.35,6.6.78,10.05.75l-8.51-.83c3.24-.57,10.05-1.01,13.76-.5-1.62-.39-4.92-.61-9.23-.73-2.15-.06-4.58-.1-7.14-.13-1.25-.01-2.53-.02-3.85-.03-.66,0-1.32,0-2-.01h-1.01s-.51,0-.51,0c-.04,0-.09,0-.12,0l-.05-.12-.09-.24c-1-2.56-2.04-5.2-3.08-7.85-1.06-2.75-2.13-5.51-3.16-8.2-2.05-5.4-3.91-10.55-5.28-14.89-1.71-2.79-4.31-7.74-3.94-5.05l2.34,5.25c.71,5.4-5.69-9.36-3.59-2.38-.96-1.76-1.96-3.57-2.99-5.46l6.68-.33c-1,6.09-2.33,12.81-5.13,20.37-.2.13-.38.22-.59.39l-.62.5c-.41.32-.81.62-1.2.89.71-.55,3.12-6.8,3.46-9.91-.12,1.14-.63,2.66-1.3,4.39-.68,1.77-1.46,3.5-2.42,6.04-.9,2.35-1.73,4.58-2.34,6.74-2.2.06-4,.33-5.35.92,1.66.2,3.36.36,5.14.53l1.34.12c.15.05.15-.08.2-.16l.12-.26.24-.53.99-2.18c-.14.68-.29,1.36-.44,2.06-.07.35-.15.71-.22,1.07l-.11.55c-.03.08-.02.21-.08.25l-.24.03c-1.34.17-2.71.35-4.11.53-1.42.21-2.99.32-4.6.46-.82.07-1.64.13-2.47.2l-.6.05-.42.05-.85.09c-4.56.47-9.35.74-14.15.42,4.37,1.75,2.22-.18,9.04,1.91-1.48-.64-.68-.94,1.2-1.07.94-.06,2.15-.09,3.48-.09,1.81.01,3.79.02,5.73.03,1.15,0,2.31.03,3.4,0,1.07-.04,2.11-.08,3.07-.12.95-.05,1.84-.09,2.62-.13,1,.24.89-.83,1.08-1.34.27-1.16.35-1.84.15-1.86-.2-.04-.64.63-1.44,1.95,1.24-1.87,2.29-4.07,3.24-6.4.47-1.17.92-2.37,1.36-3.6.5-1.44.72-1.97,1.02-2.79,1.15-3.1,2.34-6.48,4.67-10.57-.66.1-2.05,2.78.56-4.86-.07-.4-.04-1.28,0-1.85.09-.23.12-.31.2-.51-.07.15-.12.26-.2.41.01-.36,0-.4-.07.15-.81,1.77-1.56,3.17-2.07,3.68-.06-1.34.27-3.49.77-5.98l-10.69.52c2.39,4.78,5.05,11.18,6.61,13.74,1.47,4.57-1.4-1.6-1.06,1.08l3.4,5.62c-1.06,1.11,2.47,12.71-2.39,2.51l3.63,9.48c.17,1,1.25,4.2,2.17,6.89.47,1.41,1,2.79,1.54,4.19.55,1.39,1.08,2.82,1.67,4.17,2.94.08,5.85.15,8.61.12,1.38-.01,2.71-.04,3.96-.08.31-.01.62-.02.93-.03.28-.01.67-.03.79-.04.34-.03.67-.06.99-.1,4.79.35,12.09-1.51,7.92-.41l15.92-.79.15.37c15.7.3,32.33-2.31,50.29.48,2.64-.18,5.33-.38,8.46-.48.39-.01.79-.02,1.2-.03.51,0,1.03-.01,1.56-.02.68-.01,1.38,0,2.08-.04.69-.18,1.39-.36,2.11-.54.49-.12.98-.25,1.49-.37.47-.11.95-.22,1.44-.34.98-.21,2.01-.44,3.1-.67l2,.85c6.46-2.14,20.07-3.81,22.55-5.89,2,.41,5,.14,8.57-.52,1.78-.33,3.71-.76,5.71-1.26l.38-.09.19-.05s.03,0,.04,0c.04,0,.07-.02.1-.03.07-.02.14-.03.22-.03.85-.02,1.72-.03,2.59-.05,8.81-.21,18.2-.78,24.17-.5l.45-1.74c8.22.05,16.1-.47,26.3-1.24l-.63-1.52c4.4-.65,10.05-.41,16.34-.04,3.15.18,6.45.4,9.84.55.85.03,1.7.07,2.56.1,1.18.03.6.04,1.78.18,1.71.22,3.44.41,5.17.57-.5.24-1.62.23-2.93.09-.65-.07-1.35-.17-2.04-.3l-.51-.1c-.17-.03-.36-.07-.39-.09-.14-.06-.27-.11-.4-.14.11.05.22.1.32.17l.15.09.38.11c.51.14,1.02.27,1.54.4,1.03.25,2.07.47,3.12.66,2.1.38,4.22.65,6.36.85,4.28.39,8.63.48,12.94.55,8.61.13,17.03.13,24.41,2.08,3.79-.16,6.48.29,9.06.91-.35-.03-.66-.04-.94-.02.38.06.95.11,1.53.17,1.62.41,3.29.87,5.11,1.28-1.53-.5-3-.94-4.29-1.2,2.89.25,7.28.51,11.6.57l1.67,1.72c.35.02.63.03,1,.05,4.15.98,3.46-.39,1.33-1.77,2.18-.04,4.19-.14,5.76-.36,3.16,2.79,11.33.3,15.72,3.36,1.51-.49,6.92-.19,12.28-.07.67.01,1.34.02,2,.04.94.03,1.86.06,2.76.09,1.8.05,3.46.07,4.88.03,2.83-.09,4.66-.39,4.92-1.02.41.38,2.2.72-.82.45l1.21.17.61.09.31.04c.05,0,.1.02.15.02l.04-.14c.21-.74.41-1.48.61-2.21.41-1.49.8-3,1.16-4.51.34-1.54.66-3.08.91-4.59.13-.75.24-1.5.34-2.23.07-.63.1-1.12.13-1.69l2.25-1.59-.21-10.78c1.1-2.68,1.94-4.65,2.5-5.25l-8.03.94c.08.85-.18,1-.86.41l9.82-1.15c.16.53.23,1.57.24,3.11.09-1.34.19-2.54.15-3.02l-10.57,1.23c6.54,10.06,5.09,9.24,12.02,19.06l-1.32-.07c.52,1.05,1.18,2.16,1.95,3.41.93,1.58,1.9,3.22,2.83,4.8.44.76.87,1.51,1.29,2.22.1.18.2.36.3.53l.04.07s.05,0,.08,0h.16s.31-.01.31-.01c.4,0,.79,0,1.17-.01,1.5,0,2.71.11,3.58.33,3.97.52,7.99.78,13.8.89,5.72.12,12.65.08,20.09.04,7.44-.04,15.39-.1,23.14-.05,5.23.04,10.39.08,15.36.12,1.38.01,2.74.02,4.09.03.17,0,.35,0,.5,0l-.05-.47-.09-.94c-.06-.63-.12-1.25-.18-1.87-.26-2.51-.4-4.9-.74-7.43-.48,1.7-.85,1.3-1.11,0-.27-1.33-.47-3.71-.72-6.54-.24-3.97-.52-8.58-1.74-8.94.43-1.64.19-5.36,1.52-1.2-2.96-13.3-2.43-20.31-5.82-29.28.38-1.64,1.44,2.72,1.59,1.29-.33-1.05-1.3-4.17-1.16-5.62.14-1.42.88,1.88,1.53,3.95-2.54-13.67-4.67-14.75-6.62-15.46-.31-7.08-1.05-10.52-2.99-15.36.16-2.51.04-6.63,1.69,1.85-.71-4.81-4.22-29.37-5.55-29.66.03-.78-.23-2.45-.54-4.09-.16-.82-.32-1.63-.47-2.31-.06-.26-.12-.5-.17-.7-.05-.17-.09-.32-.12-.42-.23-1.77-.44-3.13-.63-4.28-.04-.29-.09-.56-.13-.83,0-.03-.02-.07,0-.09h.1s.2.04.2.04c.13.02.26.03.39.05.5.06.98.12,1.46.18.94.1,1.89.24,3.04.39.29.04.58.08.9.12.45.05.93.1,1.43.15,1.19.12,2.5.26,3.98.42l-1.87-.31-1.46-.26c.55-.11,1.09-.18,1.65-.22.62-.03,1.37-.02,2.05.02,1.4.06,2.9.25,4.57.46.85.11,1.73.23,2.67.36.24.03.48.07.72.1l.37.05.19.03s.17.06.13-.03c-.06-.47-.11-.95-.17-1.45-.13-1.02-.27-2.09-.41-3.23-.15-1.15-.41-2.44-.65-3.76l.19.33c-.37-2.69-.67-4.86-.92-6.62-.23-1.61-.43-2.85-.6-3.86-.34-2-.57-3.04-.8-4.07-.46-2.05-.87-4.08-2.11-13.77l-.52,1.17c-.92-.77-1.42-5.07-2.04-10.55-.08-.69-.16-1.39-.24-2.11-.1-.82-.2-1.65-.31-2.5-.13-.94-.26-1.9-.4-2.86l-.05-.37c.01-.08-.08-.06-.13-.08l-.17-.04-.7-.14-1.41-.28c-.96-.16-1.92-.32-2.87-.47-.76-.12-1.51-.23-2.26-.35-1.5-.21-2.97-.39-4.38-.52l4,.93c-6.19-.42-16.86-4.2-23-5.15-1.33-.29,2.15.11,4.03.27-16.02-2.89-2.2.5-14.24-.97-2.16-.7,3-.63-5.07-1.79-3.99-.81-23.63-1.97-34.55-4.21,2.39.61,4.76,1.23-.84.65-8.56-1.12-22.96-4.24-30.79-4.53-1.08-.22-1.48-.35-1.51-.42-.82-.09-1.77-.2-2.81-.32-.52-.06-1.06-.13-1.62-.19-.33-.03-.81-.13-1.21-.12l-.63.16-.56.15c-2.3.63-4.8,1.31-7.23,1.98-4.85,1.33-9.38,2.62-11.26,3.3-3.15-.04-13.05,2.64-22.19,5.13-2.29.62-4.53,1.23-6.6,1.79-.4.11-.8.22-1.18.32-.16.05-.31-.07-.46-.1-.19-.06-.37-.12-.55-.17-.92-.3-1.79-.59-2.58-.85-3.17-1.07-5.18-1.87-5.02-2.22l-19.26-6.39.55.02c-12.25-4.25-16.72-5.37-21.16-6.45-.71-.27-1.08-.43-1.3-.53-.27-.12-.26-.16-.12-.14.33.04.84.15,1,.16-.29-.1-.58-.21-.86-.31-.39-.13-.77-.28-1.16-.39l-.57-.18c-.19-.02-.38.08-.56.12-.38.11-.75.21-1.11.32-1.04.3-2.02.57-2.94.84-1.82.52-3.45.99-4.93,1.42-2.97.86-5.37,1.59-7.67,2.32-4.6,1.47-8.78,2.98-16.25,5.73l-1.76-.11c-2.01.79-8.64,2.53-16.98,4.78-.74.21-1.5.42-2.26.64-.8.22-1.55.5-2.35.75l-.59.2s-.11.02-.14.06l-.02.15-.04.31c-.06.41-.12.83-.17,1.24-.12.83-.22,1.7-.32,2.57-.09.68-.18,1.38-.26,2.08-.06.52-.12,1.04-.18,1.57-.35,1.59.1,6.32-1.55,2.81.03-.12.11-.29.43.05-.59-.79-1.31-2.03-2.05-3.08-.37-.56-.74-1.14-1.1-1.72l-.56-.92-1.14-2.01c-.56-.94-1.08-1.96-1.69-2.84l-.89-1.37-.22-.34c-.11-.06-.26-.03-.39-.04l-.81-.04c-1.07-.06-2.18-.1-3.29-.13l-1.34-.05-1.08-.05c-2.86-.14-5.68-.28-8.4-.42-10.86-.53-20.06-.84-23.9.89l-13.8.75c17.85.43-2.66,1.59,4.69,2.25-1.77.05-3.74,0-5.69-.09-1.97-.1-3.93-.27-5.44-.41-3.03-.31-4.32-.65.72-.83.56.05,1.12.11,1.68.18.76-.47-.55-.82-3.1-.93-.64-.03-1.35-.05-2.12-.07-.39,0-.79-.01-1.2-.02-.1,0-.22-.01-.3,0l-.02.3c-.01.2-.03.41-.04.61-.11,1.67-.24,3.5-.32,5.45-.08,1.77-.17,3.57-.25,5.27-.08,1.41-.16,2.72-.25,3.85-.19,2.26-.43,3.75-.78,3.62-1.15,35.11-3.73,69.3-4.9,102.19l2.16-3.74-.23,5.74-.09,3.62c-.23.83-.66,1.07-.96.61-.3-.47-.55-1.5-.53-3.46-.57.94-.29,2.34.06,4.24.11.51.22.99.31,1.43.06.25.11.49.17.71.01.1.09.27.05.3-.04.02-.08.05-.12.07-.32.18-.53.36-.48.48-2.57-.82-3.51-1.3-3.7-1.62-.18-.32.34-.49.91-.62,1.19-.24,2.39-.36,1.43-.62l-2.51-.44.69.41c-.96.22-1.65.52-2.73.6-.14,0-.28.01-.43.02h-.12s-.21-.02-.21-.02c-.14-.02-.29-.03-.44-.05-.6-.07-1.26-.17-2.01-.3-1.49-.26-3.33-.64-5.72-1.22-5.98-1.8-2.82-1.98-5.2-2.61.05-.14-.74-.4-3.65-.9l-4.31-1.07-.76-.2c-.12-.2-.13-.51-.2-.75l-.32-1.55c-.17.51-.32,1.09-.44,1.73-.06.32-.12.66-.18,1.02-.02.32-.21.84.04.93h-.2s-.1-.01-.1-.01c-.02-.02-.02-.05-.04-.07l-.14-.3c-.09-.2-.17-.41-.25-.63-.16-.43-.31-.87-.44-1.3-.3-1.02-.56-1.92-.74-2.53-.26-.84-.46-1.28-.6-1.08-.07.1-.14.37-.19.82-.03.23-.05.5-.07.83-.02.32-.03.74-.08,1.03.02-.13.04-.23.04-.4,0-.17,0-.36,0-.55,0-.38-.03-.79-.06-1.23-.06-.87-.16-1.86-.3-2.93-.28-2.15-.71-4.67-1.25-7.43-1.07-5.51-2.56-11.97-4.07-18.3-.36-1.47-.71-2.93-1.06-4.37-.11-.46-.22-.91-.34-1.36-.06-.11.02-.22.05-.33l.12-.32.25-.63c1.04-2.65,2.03-5.15,2.9-7.37,1.89-4.78,3.37-8.37,4.13-9.69,2.21-8.79,5.5-17.01,9.67-27.17-1.31,2.42-3.57,3.27.13-5.45,1.06,2.29,3.02-1.6,5.37-6.82,1.17-2.61,2.44-5.56,3.74-8.24.43-.9.85-1.79,1.26-2.64.45-.94.91-1.86,1.36-2.74.91-1.78,1.84-3.44,2.77-4.91-1.48,2.57-1.24,1.34-.36-1.35.44-1.35,1.06-3.1,1.75-5.02.35-.96.71-1.96,1.08-2.97l.14-.38.07-.19c-.06-.01-.14,0-.21,0h-.86s-1.71,0-1.71,0c-4.55.01-8.84.03-11.19.31-2.35.25-2.44.61.68,1.19-5-.13-5.15-.45-4.87-.84.23-.39,1.01-.85-3.47-1.24-9.4.73-19.76.57-30.68.36-10.92-.23-22.39-.5-34.01-.17-.36.4,3.53.99-1.46,1.63l-12.27-1.85c-4.59.26-4.23,2.26-12.61,1.03,1.18.3,2.95.77-.13.92-5.69-.18-11.41-.27-17.16-.29-2.87,0-5.75,0-8.64,0l-4.7.03c-2.09,0-4.14.04-6.18.09h-.38c-.06.02-.15-.01-.17.04l-.05.18-.21.74-.41,1.47c-.28.98-.55,1.97-.78,3l-.91,3.8-.93,3.88-.48,2.02-.06.26c0,.08-.03,0-.05-.04l-.05-.13-.22-.53-.44-1.06-1.82-4.35-2.51-6.01-.61-1.38-.3-.69-.08-.17c-.03-.05-.04-.14-.12-.11l-.37-.02c-1.01-.03-1.98-.11-3.01-.11l-5.1.06c-5.84.05-11.68.1-17.52.15-11.67.05-23.31-.02-34.87-.12,6.26.19,2.09.33-2.69.44,3.11.02-.07.42.54.64-6.45-.13-12.91-.2-19.36-.21-3.53.53-20.76.51-22.78.87l6.13-.17c-4.08.27-1.22.4,2.5.66,3.72.24,8.31.6,7.72.92,4.56-.22,10.58.04,17.33.4,6.75.32,14.23.77,21.72.2,3.31.27-2.82.3-1.05.57,3.8-.38,8.38-.44,16.88-.09l-.96.11c5.97.06,11.08.14,15.82.25,2.37.06,4.64.12,6.88.18,2.19.07,4.34.14,6.52.21.61-.01,1.2,0,1.78.05.37-.1.38.32.49.6.09.3.2.58.31.86,1.18,2.9,2.4,5.91,3.7,9.08,1.48,3.59,3.03,7.37,4.71,11.44.86,2.08,1.75,4.23,2.68,6.46l.18.42.02.05s.01-.03.02-.04l.03-.11.06-.22.25-.89c.17-.6.34-1.2.51-1.8.34-1.22.7-2.47,1.05-3.74-.41.47-.8.85-1.17,1.15,2.24-8,2.91-9.46,4.18-13.37.4-2.76.15-2.5-.34-.99-.5,1.53-1.28,4.4-2.07,7.3-.79,2.89-1.58,5.8-2.06,7.21-.48,1.43-.62,1.25-.23-1.57.8-1.44,2.21-5.93,3.9-11.84.42-1.49.86-3.05,1.31-4.66.11-.41.23-.81.34-1.23l.12-.45.06-.24c.08-.32.16-.65.23-.97.07-.33.17-.64.26-.97l.14-.48.07-.24c.04-.06,0-.22.12-.17.69.02,1.39.05,2.06.04h1.05c.61.01,1.22.02,1.82.03,1.21.03,2.4.05,3.56.07,2.32.06,4.52.13,6.49.23,3.94.21,6.97.55,8.26,1.14,8.87.13-2.6-1.18,6.26-1.06l2.35.66,2.24-.79c5.81.19,8.74,1.04,8.96,1.6-1.41-.08-4.01.1-5.52.12,7.54.88,21.25.03,23.84.31l-8.52-.53c12.1-.16,25.53.04,38.86.14,6.67.05,13.31.07,19.74-.01,3.22-.04,6.38-.1,9.47-.2.77-.03,1.54-.05,2.3-.08.23,0,.3-.02.4-.03l.29-.03.59-.07c.83-.11,1.65-.21,2.45-.31-.19-.18-.42-.36-.68-.55,2.81-.32,4.94-.34,6.48-.34.04,0,.12-.01.12.02l-.06.13-.11.26c-.08.17-.15.34-.22.51-.15.33-.3.65-.44.95-.29.61-.58,1.18-.88,1.74-.59,1.13-1.15,2.2-1.8,3.62-.16.36-.32.74-.5,1.15-.3.72-.62,1.5-.96,2.33-.68,1.68-1.44,3.63-2.3,5.92l.13-.71c-.91,3.86-2.59,8.83-4.66,13.78,1.19-4.85-4.79,8.11-3.09,1.8-6.13,18.39-2.7,9.23-5.33,21.95l-2.06,2.35c-.75,4.39-.43,4.91-3.82,14.1,2.16-7.78-3.81,5.2-1.56-3.58-.61,1.14-1.18,2.25-1.72,3.33-.26.54-.52,1.08-.78,1.6-.12.26-.25.53-.37.79-.14.32-.28.63-.42.95-.34.78-.67,1.55-.99,2.31-.16.38-.31.76-.46,1.14l-.23.56-.11.28-.06.14.03.15c.35,1.55.7,3.06,1.07,4.52.13.52.26,1.03.39,1.53.13.46.25.92.37,1.37.26.9.51,1.76.75,2.61.52,1.68,1.01,3.25,1.47,4.75,1.88,5.96,3.31,10.6,2.74,15.58,5.04,8.49-2.51-17.67-.68-12.68-.09-4.53,3.94,7.06,5.14,13.4.36,1.6.48,3.13.51,4.78,0,.84,0,1.71,0,2.63.05,1.15.11,2.41.21,3.84.1,1.43.24,3.03.44,4.82.03.23.05.45.08.68l.02.17c0,.06,0,.12.07.13l.29.11c.39.14.8.28,1.21.43.84.29,1.74.59,2.71.9.97.31,2,.62,3.1.95.95.27,1.95.56,2.99.86,1.65.48,3.47.94,5.48,1.39-1.6-.38-1.76-.19-3.35-.56,2.93,1.05,5.93,1.48,9.1,1.99,1.58.26,3.2.54,4.88.94.85.2,1.65.42,2.58.7,1.31.37,2.66.78,4.09,1.26,3.13-.2,6.48.59,9.44,1.21,1.46.31,2.78.57,3.7.6.23,0,.43,0,.61-.02.09-.01.17-.03.24-.05.04-.01.07-.02.1-.04l-.05-.22c-.14-.59-.33-1.15-.59-1.68v.65s-.01.33-.01.33c0,.02.01.07-.01.07h-.08s-.15-.04-.15-.04l-1.21-.24-2.44-.48-4.94-.98-9.71-1.94c1.3.19,2.59.38,3.89.57,1.43.19,2.83.36,4.2.51,2.56.27,5.2.55,8.05.85.33.04.67.08,1.01.12.25.12.15-.2.16-.39l-.03-.63c-.03-.82-.06-1.66-.09-2.51-.05-1.67-.07-3.35-.05-5.07,0-1.74.04-3.51.14-5.39.03-.47.05-.95.08-1.43.03-.46.06-.93.1-1.4.07-.84.15-1.69.25-2.58.11.28.22.75.33,1.35.05.3.11.63.16.98.05.35.11.7.16,1.24.2,2.01.37,4.43.49,6.47.19-1.31.28-2.69.31-4.07.02-.69.02-1.38.01-2.06v-.99s-.04-.75-.04-.75c-.06-2.01-.12-4.04.26-6.18.55.32.83,1.63.96,3.56.07.96.1,2.08.11,3.31-.02,1.8-.04,3.76-.06,5.82-.03,4.23-.24,8.64-.3,13.08v.83s-.02.42-.02.42c.03.11-.07.05-.13.04l-.19-.04c-.51-.09-1.01-.19-1.51-.28-1-.17-1.98-.34-2.94-.5-1.92-.31-3.73-.54-5.42-.7,1.77.65,4.33,1.23,6.99,1.75.66.12,1.33.25,2,.38l1,.18.49.09.25.04c.07,0,.2.08.17-.06,0-1.45,0-2.86,0-4.16,0-2.57.02-4.61.17-5.49.15-.87.44-.66.96,1.64-.62-3.23-.97-6.27-1.03-9.36-.02-.78-.02-1.56-.02-2.36.01-.65.02-1.31.03-1.98.03-1.08.1-2.21.17-3.36.28-4.63.63-9.82-.4-15.43l1.29.77c-.17-1.77-.73-5.45-.64-8.71l1.58,5.93c-1.28-9.08,1.49-17.41.81-26.11-.18,18.17-1.56,4.04-2.6,11.7-1.3-22.45,3.48-12.81,3.08-37.92.15,3.4-.83,12.74-1.33,7.41.3-4.77.81-11.07,1.43-13.99-.12-16.63-1.2,2.52-1.84-4.57,1.43-5.63-.48-8.18-.8-15.48l1.11-.02c.44-9.46-.12-10.73-.64-11.77-.13-.26-.26-.5-.37-.85-.11-.25-.2-.5-.26-.94-.06-.44-.08-1.02-.06-1.83,0-.41.02-.86.05-1.37,0-.13.02-.26.02-.39v-.2c.02-.06,0-.17.1-.13.31.01.63.03.97.05l-.38.18-.18.09c-.06.03-.13.04-.07.19.12.46.24.89.36,1.29.25.81.49,1.52.7,2.09-.02-.64-.1-1.36-.17-2.1l-.05-.56c.13-.04.3-.05.46-.07l.97-.12c-.06.38-.03.77.09,1.16.6-.29,1.36-.37,2.08-.43.34-.02.67-.04,1-.07.42-.02.84-.04,1.25-.06.82-.03,1.6-.05,2.39-.08,3.15-.07,6.27.01,11.01.07-2.2-.63,1.24-1.74,9.63-1.86,5.72.46-3.21.91,8.69.6-2.69.58-5.63,1.36-10.8.61-.53.31-2.65.62-3.19.93,6.16.5,15.49-.19,19.8-.28-1.66,0-3.64,0-4.66-.11l8.62-.75,4.31-.36c.42-.05.7-.06,1.09-.12l.56-.09.14-.02s.06.06.09.08l.17.19c.28.71.2.83,0,.76-.1-.04-.23-.12-.37-.22-.07-.05-.14-.1-.22-.16-.12.03-.24.07-.36.1l.26-.03c.1-.04.11.09.18.13.1.12.21.23.31.34.11.11.2.25.3.37l.16.2.08.1.18.25c.25.34.5.69.77,1.06l.2.28c.1.14.19.28.29.43.2.3.41.61.62.93.84,1.27,1.76,2.66,2.79,4.29-.69-.51-1.08-.52-2.13-1.66-.53-.58-1.23-1.45-2.24-2.85-.12-.16-.24-.34-.37-.51-.09-.11-.17-.22-.27-.34-.18-.24-.37-.49-.58-.77-.1-.14-.21-.28-.32-.43l-.09-.11c-.05-.07-.11-.14-.17-.22l.14.18.07.09.17.23.59.84.3.42.15.22.25.37,3.86,5.81,3.74,5.62c.31.48.6.9.89,1.3l.86,1.22,1.7,2.42c.47.96,2.29,4.04,3.85,6.73l.15.25c.04.05.11.25.11.1.03-.15.05-.29.08-.43.05-.28.1-.54.15-.78.09-.48.18-.88.24-1.14.13-.51.18-.47.1.6.54-3.78,1.09-8.37,1.61-13.21.25-2.4.5-4.87.77-7.41.12-1.24.25-2.5.37-3.76l.09-.94.04-.42v-.06s0-.26,0-.26c0-.09-.02-.19-.03-.29l-.02-.16v-.08s.03-.02.04-.04c.15-.09.3-.19.5-.26l.32-.13,1.08-.39,2.18-.77c2.91-1.02,5.85-1.98,8.75-2.83.57-.29,1.74-.77,4.16-1.62,10.83-3.38,20.56-5.97,33.19-10.65l.47-.1.23-.05s.06,0,.08,0c.1.01.2.01.29.01.09.02.17.1.24.16l.11.09s.09.05.16.08l.22.1,3.51,1.52c10.08,3.07-9.53-4.08,7.25,1.06,11.88,3.63,4.21,2.02,8.29,3.56,5.99,1.55,16.42,4.22,27.08,8.32-3.63-1.06-6.41-2.08-9.78-3.13ZM587.61,18.21c-2.51-.27-7.52-.69-9.29-1.28,2.92-.17,5.07.45,9.29,1.28ZM637.78,140.19c-.65-1.79-.9-4.68-.98-7.98.45,2.33.82,4.99.98,7.98ZM198.68,203.16c.08.14.14.23.22.33.38,1.1.7,2.01.96,2.75l.05.14s.08.01.12.02c.09,0,.17.01.25.02.16.01.31.03.46.04.29.02.53.04.74.06.84.07,1.08.09.86.08-.22-.01-.91-.06-1.92-.12-.22-.06-.61.1-.64-.3-.11-.29-.22-.6-.33-.92-.23-.64-.49-1.34-.77-2.09ZM193.57,188.56c-.62-1.01-.79-.86-.8-.32.33.31.73,1.07,1.18,2.11.22.52.46,1.11.7,1.74.26.72.54,1.48.83,2.27-.11-.82-.11-1.29-.39-2.2-.26-.88-.73-2.04-1.53-3.59ZM264.43,141.6l2.13.86c-5.08-.76-3.6-.79-2.13-.86Z" fill="#26180f"/>
          <path d="M632.99,118.28c.07-.73.23-.96.4-1.15-.32-.95-.52-.94-.4,1.15Z" fill="#26180f"/>
          <path d="M385.06,17.35l-.38.12c-.2.1-.29.17-.34.23l.72-.35Z" fill="#26180f"/>
          <path d="M370.1,179.66c2.4.23,3.74.53,4.63.84.13-.41-.96-.74-4.63-.84Z" fill="#26180f"/>
          <path d="M183.21,195.01l3.15-.21c.12-.02.28.01.37-.05l.11-.4.22-.79.44-1.57c.59-2.09,1.18-4.15,1.72-6.26-.85,3.03-1.55,4.94-2.12,6.49-.3.75-.52,1.47-.85,2.03-.76-.03-1.5-.06-2.3-.09.46.31,3.26.68-.75.85Z" fill="#26180f"/>
          <path d="M113.44,186.53c-1.09.15-2.31.02-3.39.17l.3.58c4.65-.03,7.9-.5,3.09-.75Z" fill="#26180f"/>
          <path d="M171.36,190.49c-.59-1.17-5.28-.79-10.51-.61.31,0,.61-.01.93,0-1.54,1.6,4.03,1.11,9.58.6Z" fill="#26180f"/>
          <path d="M159.64,189.92c-1.61.04-3.26.07-4.84,0-.61.63,1.96.15,4.84,0Z" fill="#26180f"/>
          <path d="M187.41,175.09c-.6-2.43-2.05-.86-2.08-2.36-2.49-1.99,7.79,14.7,2.08,2.36Z" fill="#26180f"/>
          <polygon points="167.12 186.65 169 188.08 171.94 186.93 167.12 186.65" fill="#26180f"/>
          <path d="M189.24,159.98l-2.74,7.91c.28-.05.12,1.01-.14,2.29,1.49-4.93,3.36-10.27,2.87-10.21Z" fill="#26180f"/>
          <path d="M186.37,170.19c-.78,2.57-1.46,5.03-1.65,6.53.39-1.4,1.22-4.41,1.65-6.53Z" fill="#26180f"/>
          <path d="M178.29,186.22l1.3.15c.2,0,.47.1.63.03l.23-.51,1.72-5.56-1.33,3.85-.65,1.87-.08.23c-.05.04-.17,0-.24.01l-.52-.02-1.04-.05Z" fill="#26180f"/>
          <path d="M249.32,200.44l9.12-.47c.93-.57-1.56-.92-4.95-.69-2.18.4-5.57.61-4.17,1.16Z" fill="#26180f"/>
          <path d="M221.73,195.97c2.47.33,2.63.69,4.03,1.22l.28-2.01-4.3.79Z" fill="#26180f"/>
          <path d="M248.34,195.43c.91-.57,13.24-1.68,1.68-1.51-.93.57-10.06,1.06-1.68,1.51Z" fill="#26180f"/>
          <polygon points="384.23 185.46 381.91 185.5 382.26 188.99 384.23 185.46" fill="#26180f"/>
          <path d="M505.92,185.17c-10.66-1.98-2.76,1.73-12.37-.32-2.6.5,7.85,1.67,5.2,2.05,6.57-.1,9.93.73,7.17-1.73Z" fill="#26180f"/>
          <path d="M498.75,186.9c-1.05.01-2.17.05-3.36.14,1.9,0,2.8-.06,3.36-.14Z" fill="#26180f"/>
          <polygon points="25.13 17.5 18.18 17.62 22.67 17.65 25.13 17.5" fill="#26180f"/>
          <path d="M11.78,18.25l-1.64-.21-4.18.33c1.57-.05,4.62-.16,5.81-.13Z" fill="#26180f"/>
          <path d="M606.47,22.73l.55-.1c-1.03-.37-2.64-.65-5.86-1.19l5.3,1.29Z" fill="#26180f"/>
          <polygon points="514.68 11.98 516.26 11.6 513.17 11.78 514.68 11.98" fill="#26180f"/>
          <path d="M436.77,10.54c3.07,1.01,6.73,2.05,9.81,3.06-6.74-2.05-10.4-4.05-9.81-3.06Z" fill="#26180f"/>
        </g>
      </g>
      <g>
        <path d="M130.35,219.51h16.7v4.72h-10.42v13.11h9.24v4.72h-9.24v14.13h10.42v4.72h-16.7v-41.4Z" fill="#26180f"/>
        <path d="M155.9,219.51h5.86l6.25,16.52c1.81,4.67,3.41,9.64,4.8,14.93-.5-3.2-.88-6.09-1.12-8.69-.24-2.59-.36-5.03-.36-7.32v-15.44h6.31v41.4h-5.89l-7.03-18.64c-.64-1.73-1.25-3.51-1.83-5.34-.57-1.82-1.1-3.74-1.58-5.74-.04-.25-.11-.55-.2-.91-.09-.36-.2-.77-.32-1.23.06.46.11.86.15,1.19.04.33.07.61.09.84l.33,4.21.33,5.12c.02.29.04.63.05,1.05,0,.41.01.88.01,1.39l.33,18.05h-6.19v-41.4Z" fill="#26180f"/>
        <path d="M187.92,219.51h16.7v4.72h-10.42v13.11h9.24v4.72h-9.24v14.13h10.42v4.72h-16.7v-41.4Z" fill="#26180f"/>
        <path d="M213.47,219.51h8.27c3.42,0,5.97.72,7.64,2.17,2.11,1.88,3.17,4.75,3.17,8.61,0,2.97-.56,5.35-1.68,7.15-1.12,1.8-2.71,2.91-4.79,3.34l8.57,20.14h-6.37l-8.54-20.27v20.27h-6.28v-41.4ZM219.75,237.86c2.44,0,4.16-.5,5.16-1.5,1.01-1,1.51-2.69,1.51-5.07,0-1.29-.11-2.39-.32-3.3-.21-.91-.54-1.65-1-2.23-.45-.57-1.04-.99-1.75-1.26-.71-.27-1.56-.4-2.55-.4h-1.06v13.76Z" fill="#26180f"/>
        <path d="M253.18,239.14h11.41v1.61c0,8.06-.79,13.51-2.38,16.33-1.57,2.9-4.51,4.34-8.82,4.34s-7.62-1.61-9.51-4.83c-1.87-3.22-2.81-8.62-2.81-16.22,0-8.69,1.03-14.47,3.08-17.35,1.93-2.7,4.9-4.05,8.91-4.05,3.06,0,5.44.65,7.15,1.96,1.73,1.32,3.08,3.5,4.05,6.52l-5.86,2.17c-.26-1.09-.55-2.01-.88-2.75-.32-.74-.67-1.32-1.06-1.73-.77-.84-1.91-1.26-3.44-1.26-2.09,0-3.52,1.14-4.29,3.43-.77,2.4-1.15,6.69-1.15,12.9s.39,10.52,1.18,12.74c.78,2.22,2.26,3.33,4.44,3.33,1.99,0,3.39-.79,4.2-2.36.83-1.68,1.24-4.38,1.24-8.1v-1.96h-5.46v-4.72Z" fill="#26180f"/>
        <path d="M273.93,219.51h6.28v41.4h-6.28v-41.4Z" fill="#26180f"/>
        <path d="M289.34,219.51h20.53l-14.01,36.52h13.25v4.88h-21.43l14.13-36.68h-12.47v-4.72Z" fill="#26180f"/>
        <path d="M316.92,219.51h16.7v4.72h-10.42v13.11h9.24v4.72h-9.24v14.13h10.42v4.72h-16.7v-41.4Z" fill="#26180f"/>
        <path d="M342.47,219.51h7.73c2.35,0,4.34.23,5.95.7,1.49.45,2.82,1.24,3.99,2.39,1.75,1.72,3,3.95,3.74,6.7.74,2.66,1.12,6.48,1.12,11.45,0,4.56-.41,8.28-1.24,11.15-.81,2.75-2.13,4.85-3.99,6.3-2.27,1.81-6.35,2.71-12.23,2.71h-5.07v-41.4ZM348.75,256.04c3.82,0,6.38-1.03,7.67-3.08,1.33-2.06,1.99-6.05,1.99-11.99,0-6.38-.63-10.77-1.9-13.17-1.27-2.39-3.59-3.59-6.97-3.59h-.79v31.83Z" fill="#26180f"/>
        <path d="M408.52,220.19v5.01c-1.61-.7-2.96-1.05-4.04-1.05-1.49,0-2.77.33-3.83.98-1.07.65-1.95,1.66-2.64,3.02-.69,1.36-1.21,3.08-1.54,5.16-.33,2.08-.5,4.54-.5,7.39,0,10.23,2.95,15.34,8.85,15.34,1.03,0,2.26-.29,3.71-.86v5.12c-1.51.75-3.2,1.13-5.07,1.13-9.44,0-14.16-6.85-14.16-20.54,0-7.4,1.15-12.91,3.46-16.52,2.3-3.61,5.83-5.42,10.58-5.42,1.75,0,3.48.41,5.19,1.23Z" fill="#26180f"/>
        <path d="M439.87,241.23c0,7.31-.92,12.5-2.75,15.58-1.83,3.08-4.9,4.61-9.21,4.61-4.53,0-7.72-1.65-9.57-4.96-1.83-3.24-2.75-8.98-2.75-17.24,0-7.36.91-12.58,2.72-15.63,1.83-3.07,4.93-4.61,9.3-4.61,3.91,0,6.8,1.19,8.7,3.57,1.25,1.59,2.15,3.85,2.72,6.78.56,2.72.85,6.69.85,11.91ZM433.29,241.82c0-7.17-.36-11.92-1.09-14.27-.72-2.36-2.2-3.54-4.44-3.54s-3.72,1.08-4.47,3.24c-.72,2.18-1.09,6.56-1.09,13.14,0,6.06.38,10.26,1.15,12.6.78,2.22,2.25,3.33,4.41,3.33s3.56-1.04,4.35-3.11c.79-2.06,1.18-5.85,1.18-11.4Z" fill="#26180f"/>
        <path d="M449.18,219.51h16.79v4.72h-10.51v13.08h9.48v4.72h-9.48v18.88h-6.28v-41.4Z" fill="#26180f"/>
        <path d="M473.89,219.51h16.79v4.72h-10.51v13.08h9.48v4.72h-9.48v18.88h-6.28v-41.4Z" fill="#26180f"/>
        <path d="M498.6,219.51h16.7v4.72h-10.42v13.11h9.24v4.72h-9.24v14.13h10.42v4.72h-16.7v-41.4Z" fill="#26180f"/>
        <path d="M524.15,219.51h16.7v4.72h-10.42v13.11h9.24v4.72h-9.24v14.13h10.42v4.72h-16.7v-41.4Z" fill="#26180f"/>
      </g>
      <path d="M268.31,171.34c4.74-.49,9.49-.93,14.24-1.35l.68.81c4,4.83,7.02,10.61,11.25,15.31l-7.34-23.78-35.26-8.93c4.91,5.17,11.91,12.31,16.43,17.94Z" fill="#f68b42"/>
      <path d="M260.79,190.16l-6.47-27.99-.93-4c4.35,7.06,9.16,11.86,14.34,18.65,4.81-.41,9.63-.88,14.44-1.38,4.78,5.25,7.53,8.84,12.23,14.72h-33.62Z" fill="#f68b42"/>
      <g>
        <path d="M172.39,178.39h-45.63s15.44-149.81,15.44-149.81h116.62l-24.74,71.3,20.27,90.24h-45.28l-19.49-85.09,13.9-37.31h-21.65s-9.43,110.67-9.43,110.67Z" fill="url(#linear-gradient)"/>
        <path d="M346.93,105.14l.58,72.96-46.89,12.02,2.85-161.54h42.65l33.74,76.56-1.82-78.07,42.34-10.22,8.88,161.25h-46.72l-35.61-72.96Z" fill="url(#linear-gradient-2)"/>
        <path d="M480.34,28.58l41.77-11.77,20.9,173.31-107.24-12.01-8.89-161.31,42.79,11.77,9.3,113.79,11.6-.02-10.23-113.77Z" fill="url(#linear-gradient-3)"/>
        <path d="M564.17,60.77l-30.66-3.99-4.87-39.98,107.62,11.77,6.3,39.02-29.19-3.05,19.16,125.56h-50.36l-18-129.35Z" fill="url(#linear-gradient-4)"/>
      </g>
    </g>
    <path d="M127.33,110.1l-7.19,68.13H16.61V28.69h94.66l16.07,81.42ZM84.03,135.51l2.19-27.2-7.29-36.9h-19.59v64.09h24.69Z" fill="url(#linear-gradient-5)"/>
  </g>
</svg>