<?xml version="1.0" encoding="UTF-8"?>
<svg id="Layer_2" data-name="Layer 2" xmlns="http://www.w3.org/2000/svg" xmlns:xlink="http://www.w3.org/1999/xlink" viewBox="0 0 738.25 311.6">
  <defs>
    <linearGradient id="linear-gradient" x1="276.97" y1="219.95" x2="166.51" y2="28.63" gradientUnits="userSpaceOnUse">
      <stop offset="0" stop-color="#bf692c"/>
      <stop offset="1" stop-color="#f68b42"/>
    </linearGradient>
    <linearGradient id="linear-gradient-2" x1="462.18" y1="213.31" x2="353.75" y2="25.49" xlink:href="#linear-gradient"/>
    <linearGradient id="linear-gradient-3" x1="603.2" y1="219.48" x2="485.87" y2="16.27" xlink:href="#linear-gradient"/>
    <linearGradient id="linear-gradient-4" x1="732.76" y1="202.94" x2="618.88" y2="5.69" xlink:href="#linear-gradient"/>
    <linearGradient id="linear-gradient-5" x1="124.71" y1="207.17" x2="22.53" y2="30.19" xlink:href="#linear-gradient"/>
  </defs>
  <g id="logos">
    <path d="M302.46,193.15c5.35-.55,10.7-1.05,16.05-1.52l.77.91c4.51,5.45,7.91,11.96,12.68,17.26l-8.28-26.8-39.75-10.07c5.54,5.83,13.42,13.88,18.52,20.22Z" fill="#f68b42"/>
    <path d="M293.99,214.37l-7.29-31.55-1.05-4.51c4.91,7.96,10.33,13.37,16.17,21.02,5.42-.47,10.85-1,16.27-1.55,5.39,5.92,8.49,9.97,13.79,16.6h-37.89Z" fill="#f68b42"/>
    <g>
      <g>
        <g>
          <polygon points="6.73 21.35 134.01 21.35 143.83 45.47 149.79 21.35 308.76 21.35 272.08 113.18 283.94 162.82 328.15 172.93 331.97 21.35 399.12 21.35 412.66 43.5 414.88 21.35 476.98 2.14 534.94 21.39 591.23 7.37 724.36 26.7 734.04 83.93 709.43 80.96 732.05 223.4 647.85 223.69 631.94 190.74 624.56 224.21 487.47 209.9 392.33 210.24 338.86 224.21 230.94 224.21 212.61 178.3 203.31 210.4 6.73 210.4 6.73 21.35" fill="#fef6f0"/>
          <g>
            <path d="M5.76,24.11c.12-3.49-.07-2.24-.08-2.76-.18,5.84.13,2.62.08,2.76Z" fill="#fef6f0"/>
            <polygon points="5.17 81.74 5 80.72 5.33 89.22 5.17 81.74" fill="#fef6f0"/>
            <path d="M4.39,135.64c1.15-5.1.06-19.53.58-29.13l.23-1.58-.66-4.33c-.12,11.67.26,26.83-.15,35.05Z" fill="#fef6f0"/>
            <path d="M1.23,164.37c.55-1.77.28,6.22.32-6.7-.07.65-.1.84-.15,1.21-.02,1.16-.06,2.76-.17,5.49Z" fill="#fef6f0"/>
            <path d="M1.4,158.89c.11-5.68-.51,3.71,0,0h0Z" fill="#fef6f0"/>
            <path d="M1.08,185.1l-.31-7.48c-.35,1.56-.59,8.22-.77,5.74.07,7.67.45,6.09,1.08,1.73Z" fill="#fef6f0"/>
            <path d="M1.98,192.19l-.14-3.87c-.15.68-.22,1.7.14,3.87Z" fill="#fef6f0"/>
            <path d="M1.56,180.1l.28,8.22c.25-1.08.71-1.2-.09-3.77.41.67.03-.95-.19-4.44Z" fill="#fef6f0"/>
            <path d="M1.87,175.45c.38-4.19.66-9.61.99-2.11.06-14.3-.85-12.2-.99,2.11Z" fill="#fef6f0"/>
            <path d="M5.53,138.39l.36-5.61-.33-4.85c.17,2.42-.38,10.8-.03,10.46Z" fill="#fef6f0"/>
            <path d="M28.01,217.89c.47-.34-2.51-.99-3.07-1.45l-5.52.29c2.84.29,8.22.62,8.59,1.15Z" fill="#fef6f0"/>
            <path d="M24.93,216.44l8.26-.47c-7.38-.19-8.73.07-8.26.47Z" fill="#fef6f0"/>
            <polygon points="3.57 193.52 2.67 179.95 3.56 196.14 3.57 193.52" fill="#fef6f0"/>
            <polygon points="59.56 218.61 54.88 219.39 63.22 218.23 59.56 218.61" fill="#fef6f0"/>
            <path d="M80.49,218.87c-3.47.7,4.75,1.41,1.09,1.81,5.69,0,10.54-.58,14.91-1.11-4.64.26-9.6.06-16-.7Z" fill="#fef6f0"/>
            <path d="M103.83,218.79c-2.32.16-4.72.46-7.34.78,2.47-.14,4.89-.36,7.34-.78Z" fill="#fef6f0"/>
            <path d="M47.27,216.39c.64.24,1.87.84,6.5,1.18l-3.25-1.12c-.99-.02-2.11-.04-3.25-.07Z" fill="#fef6f0"/>
            <path d="M50.41,216.42l.11.04c3.53.09,5.97.15,7.02.17-.9-.03-3.05-.09-7.14-.21Z" fill="#fef6f0"/>
            <path d="M46.45,216.37c.3,0,.52.01.82.02-.31-.11-.5-.15-.82-.02Z" fill="#fef6f0"/>
            <path d="M9.89,214.66c.92-.05,1.96-.11,3.05-.17.53-.03,1.08-.06,1.63-.09.39-.03.79-.06,1.18-.09,1.48-.12,2.89-.25,3.85-.4,1.91-.29,1.99-.65-2.9-1.1-1.74.31-1.21.6-1.16.89.03.15-.07.3-.62.46-.69.16-2.25.33-5.03.5Z" fill="#fef6f0"/>
            <path d="M42.42,215.01l-8.78-.34c.17.27,1.76.68-.65.92l9.42-.58Z" fill="#fef6f0"/>
            <polygon points="46.71 214.73 42.42 215.01 45.67 215.14 46.71 214.73" fill="#fef6f0"/>
            <path d="M88.8,217.45c3.79-.45,7.94-.44,12.62-.45-5.02-.3-10.21-.49-15.14-.55-.7.35-2.86.97,2.52,1.01Z" fill="#fef6f0"/>
            <path d="M70.14,216.85c.26-.02.6-.04.84-.05-.52-.1-.93-.14-.84.05Z" fill="#fef6f0"/>
            <path d="M147.54,217.59c-.26-.08-.48-.16-.74-.24-.06.07-.1.15-.17.22l.91.02Z" fill="#fef6f0"/>
            <path d="M85.44,216.22c-3.77-.27-6.03-.02-8.18.3,2.82-.07,5.81-.11,9.02-.07.31-.16.37-.27-.84-.23Z" fill="#fef6f0"/>
            <path d="M116.7,218.44c-1.97-.29-4.19-.53-6.54-.76,1.92.41,5.84,1.07,6.54.76Z" fill="#fef6f0"/>
            <path d="M72.26,217.13c-.19.01-.36.03-.56.04,1.24.26,1.08.14.56-.04Z" fill="#fef6f0"/>
            <path d="M72.26,217.13c1.94-.13,3.47-.38,5-.61-2.3.06-4.43.15-6.27.28.47.09.94.21,1.27.33Z" fill="#fef6f0"/>
            <path d="M161.51,209.26c-.67,1.24-10.59,2.33-19.15,1.05-8.43.89-2.92,4.74,4.44,7.04.26-.52.26-1,8.93-1.63-3.04-.7-19.24-1.67-11.93-2.7,11.49-.57,9.41.46,15,1.14-4.75-1.53,14.62-2.17,12.11-4.47l-10.07.8c-.19-.35,3.46-.91.67-1.23Z" fill="#fef6f0"/>
            <path d="M130.27,217.03l-3.57.1c4.07.25,6.98.75,12.34,1.75,5.94-.49,7.17-.93,7.58-1.32l-17.57-.37,1.22-.16Z" fill="#fef6f0"/>
            <path d="M110.68,216.94c2.79-1.18,11.36-1.64,6.11-3.02-10.47.02-7.34.97-13.6,1.43,16.9-.12-4.85.62,7.36,1.45-3.32.17-6.31.19-9.13.2,3.04.19,5.98.41,8.74.68-.15-.03-.26-.05-.39-.08h-.08s.02,0,.02-.02c-.73-.16-.97-.26-.15-.16.06-.01.26-.02.35-.02.11-.17.43-.31.76-.45,4.89.31.77.33-.76.45-.06.06-.19.11-.21.18.02,0,.04.01.06.02l16.93-.46c-3.58-.22-8.07-.23-16.02-.19Z" fill="#fef6f0"/>
            <path d="M25.72,210.73c.53.09.5.16.54.23,1.09-.12,1.51-.2-.54-.23Z" fill="#fef6f0"/>
            <path d="M32.69,211.35c-1.23.14-2.26.54-6.26.42-3.47-.31.02-.48-.17-.8-2.41.27-8.44.68-.88,1.19l1.2-.13c6.82.36,15.57,1.72,14.38,1.86-1.99-.95-3.74-1.63-8.28-2.54Z" fill="#fef6f0"/>
            <path d="M72.17,213.65l14.1-.46-7.18-1.03.36.6c-8.02-.27-6.29.46-7.28.9Z" fill="#fef6f0"/>
            <polygon points="149.15 218.26 147.28 219.61 155.42 217.76 149.15 218.26" fill="#fef6f0"/>
            <polygon points="167.47 218.32 166.79 219.54 171.63 218.86 167.47 218.32" fill="#fef6f0"/>
            <path d="M589.6,10.46l-3.99,1.11c1.89-.51,3.11-.85,3.99-1.11Z" fill="#fef6f0"/>
            <path d="M618.21,14.07l.76-.11c-1.39-.08-1.97-.08-.76.11Z" fill="#fef6f0"/>
            <path d="M559.06,226.48c5.86,1.93,12.36,4.63,11.8,2.96l-1.68-1.74c-4.22-.13-7.42-.62-10.12-1.23Z" fill="#fef6f0"/>
            <path d="M717.98,136.36c-.02.58-.03,1.19-.05,1.79.6,1.39,1.16,2.7,1.66,3.86-.49-1.7-1.04-3.63-1.61-5.66Z" fill="#fef6f0"/>
            <path d="M712.98,132.84l-.49-7.98c.03,1.81.18,4.37.49,7.98Z" fill="#fef6f0"/>
            <path d="M433.26,19.95l-4.4,2.13c7.18-2.38,3.92-1.64,4.4-2.13Z" fill="#fef6f0"/>
            <path d="M299.88,233.16c5.21.67,9.35.95,12.99,1.05-6.27-.97-11.33-2.4-12.99-1.05Z" fill="#fef6f0"/>
            <path d="M600.96,6.27c-2.52-.27-3.61-.33-3.55-.21,2.6.29,4.07.4,3.55.21Z" fill="#fef6f0"/>
            <path d="M327.91,234.27c-.92-.17-1.82-.26-2.75-.4-3.81.26-7.64.47-12.29.34,4.63.72,9.94,1.19,15.04.06Z" fill="#fef6f0"/>
            <path d="M194.99,27.4c-.43-.05-.95-.08-1.34-.15-.13.14.47.16,1.34.15Z" fill="#fef6f0"/>
            <path d="M57.05,19.43c1.7-.04,4.48-.12,7.1-.18-1.28,0-3.42.05-7.1.18Z" fill="#fef6f0"/>
            <path d="M205.57,185.91c-1.5-3.59-.38-.51,0,0h0Z" fill="#fef6f0"/>
            <path d="M211.85,193.11c.08-.84.05-1.5-.24-1.69.25.4.31.99.24,1.69Z" fill="#fef6f0"/>
            <path d="M365.65,216.95c.11-.03.2-.05.33-.08-1.2-.03-.99-.01-.33.08Z" fill="#fef6f0"/>
            <path d="M220.5,182.04c.17-.38.34-.77.54-1.29l-16.59.81c.26.99.62,2.19,1.02,3.44-.13-.57-.38-1.49-1.02-3.44l16.59-.81s-.28.59-.54,1.29Z" fill="#fef6f0"/>
            <path d="M221.4,181.48c-.44,1.27-.79,2.26-1.12,3.21.09.54.37.17,1.12-3.21Z" fill="#fef6f0"/>
            <path d="M207.61,190.92c-.83-2.06-1.51-4.02-2.13-5.92.18.75.22,1.08.1.91.43,1.06,1.03,2.55,2.03,5.02Z" fill="#fef6f0"/>
            <path d="M332.51,165.84c-.05.32-.09.71-.15,1.05.22,2.79.28,3.64.31,3.21.02-.43-.02-2.11-.16-4.26Z" fill="#fef6f0"/>
            <path d="M638.89,189.54c-.09-.16-.17-.23-.25-.37.06.17.14.39.2.54l.05-.17Z" fill="#fef6f0"/>
            <path d="M645.85,201.67c-4.17-4.59-5.43-7.73-7.02-11.96l-1.79,5.99,8.81,5.97Z" fill="#fef6f0"/>
            <path d="M518.76,18.94l9.18,3.47c-11.46-3.03-19.53-5.87-10.97-2.46.45-.25,2.94.35,6.45,1.39,1.75.52,3.76,1.15,5.9,1.83,1.07.34,2.17.7,3.29,1.05l1.42.46.76.24.78-.19c.78-.2,1.57-.4,2.35-.59,9.23-2.35,18.45-4.7,18.93-5.57l6.34-1.26c-1.8.43-2.07.59-3.85,1.01,12.36-2.34,8.8-3.29,24.57-6.97,2.75-.62,5.1-1.12,6.29-1.32.3-.05.53-.08.67-.09.16-.02.13.02.13.04,0,.05-.5.22-1.41.49l1.45-.4c.1-.03.2-.07.3-.09l.32.02,3.12.37,6.24.74c3.61.56,2.69.7-.91.13l18.98,2.71-.15.02c2.74.16,8.93.7,11.94.99,4.78.95-2.44-.19-1.24.19l10.56,1.19c4.22,1.07-4.54.15-11.79-1,9.57,3.08,8.77.89,29.78,5.1l-9.94-1.32c6.25,1.94,14.03,2.79,25.13,5.21-2.6-.79-22.19-5.07-10.74-3.73,3.19.62,7.41,1.35,13.61,1.93-.03.64,5.98,1.42,13.49,2.56l-.64.8c8.15,1.03,7.57.48,12.41.81,9.03,1.5,10.8,2.55,12.83,3.52,3.59.63,4.84.77,4.79.65.1-.1-1.1-.46-2.14-.8-1.06-.35-2.03-.69-1.67-.78.18-.05.7-.03,1.7.07.5.06,1.13.14,1.9.23.5.07.51.06.73.08.19.02.39.04.61.06.27.09.59.11.79.24.02.3.04.59.08.87.05.28.1.56.14.83.1.69.21,1.37.31,2.05.42,2.71.86,5.34,1.34,8.04.97,5.4,2.13,11.07,3.59,18.22.93,8.49-.91-1.36-.76,1.72l2.06,7.32c.26,1.83-.11,1.29-.3,1.01.66,3.12.98,3.2,1.36,3.73.09.13.19.29.3.54.11.25.2.35.32.65.23.55.53,1.5.88,3.11.21.31.38.76.5,1.3.06.27.12.57.16.88.02.15.04.31.06.48l.03.25v.06s-.04,0-.07-.01l-.15-.03c-1.63-.32-3.72-.87-5.56-1.28-.23-.05-.47-.11-.7-.16-.4-.08-.8-.17-1.21-.25-.81-.16-1.64-.33-2.48-.49l-.77-.14-.93-.16c-.63-.1-1.26-.2-1.89-.31-1.28-.19-2.56-.39-3.84-.58-2.53-.32-4.94-.48-7.26-.63l-.86-.05c-.13,0-.3-.03-.4,0l.08.46c.11.61.22,1.21.33,1.81.23,1.19.47,2.36.74,3.49.07,1.98-.22,1.42-.59.37-.37-1.03-.82-2.55-1.02-2.02.55,3.28,1.15,6.2,1.6,8.6.52,2.74.73,3.63.99,4.88.51,2.33.88,4.02,1.23,5.62.73,3.19,1.46,6,3.3,12.77l.78,11.92c-.16-8.83,2.8,2.01,5.49,11.49.08-3.15.15-5.85.1-7.64l3.35,15.28c.04,1.9-.76.44-1.83-1.98.3,1.03.59,2.01.83,2.76.3,5.61-1.11,2.9-2.61-.91.04-1.93.07-3.85.11-5.71-1.56-3.66-3.13-7.06-3.91-6.12.33.98.77,2.88,1.18,5-.41-.96-.73-1.56-.82-1.07-.09.55.5,2.11,1.28,4.57l-1.25,3.79.83.74,1.82,20.39c1.99,7.08,4.19,13.65,6.46,21.3,1.13,3.82,2.29,7.91,3.44,12.47.58,2.28,1.15,4.68,1.72,7.21.28,1.27.56,2.57.85,3.91.27,1.32.55,2.67.84,4.06-1.23-2.92-1.87-2.96-2.48-2.69-.61.33-1.19.99-2.13.78.16-.44.23-.99.23-1.61v-.26s-.03-.37-.03-.37c-.02-.25-.04-.5-.06-.75-.05-.51-.11-1.03-.19-1.57-.31-2.15-.82-4.52-1.4-7.06-1.16-5.08-2.58-10.85-3.28-16.82.74,6.24-.28,5-.8,3.47l4.82,20.95c-.38-.06-.6.2-.7.71-.05.26-.08.58-.09.95,0,.31,0,.66.01,1.05,0,.92.22,2.21.07,3.27.72-.09,1.26.26,1.74,1.3.24.51.47,1.16.68,1.93.11.38.21.79.32,1.23,0,.05.04.12.02.15h-.14s-.29.04-.29.04c-.2.01-.4.03-.61.04-1.76.08-3.78.18-5.69.27-.5.03-1,.06-1.48.08-.74.03-1.45.06-2.14.08-1.38.06-2.65.15-3.74.26-.27-.51.11-1.03,1.9-1.39.89-.18,2.13-.31,3.82-.38.25-.02.52-.04.81-.05.25-.01.52-.02.8-.03.57-.01,1.2-.01,1.92,0-.93-.28-1.63-.43-2.25-.48-.31-.03-.6-.03-.87-.01l-.21.02-.42.02c-.28.02-.55.04-.82.06-2.15.19-4.04.64-5.92,1.1-3.76.93-7.5,1.93-13.27.93,2.6-.02,4,.14,5.03-.39-6.07.92-20.91.17-17.42-.75l2.59-.02c-4.31-.1-9.75-.16-15.53-.15-2.89.03-5.86.05-8.81.08-1.48.03-2.95.06-4.41.09-1.42.04-2.82.08-4.2.13-.86.07-1.71.13-2.53.2-.42.03-.84.06-1.25.09-.21.02-.42.03-.62.05l-.31.03h-.16s-.05-.06-.08-.09c-.76-1.27-1.54-2.46-2.3-3.53-.1-.14-.19-.27-.28-.4-.12-.19-.24-.38-.36-.56-.25-.38-.49-.74-.72-1.09-.46-.68-.89-1.28-1.29-1.78-.79-1-1.43-1.62-1.89-1.75.25-.31,4.03.57,4.99,1.26-6.04-6.59-12.13-13.15-18.28-19.68l2.62-.31.48,5.35c-1.75-3.05-9.24,5.04-8.22-7.05l1.45-17.14,10.82,15.71c.24.35.52.79.81,1.27-.17-.43-.34-.88-.53-1.4l-6.8-17.81-6.03,19.31c-1.14,3.65-2.45,8.34-3.39,16.01.97-2.66,5.04-6.04,4.43-2.25-1.25,2.42-2.07,4.05-2.67,5.33-.3.64-.55,1.19-.77,1.71-.21.5-.4.95-.59,1.43-.3.61-.58,1.26-1.02,2.09-.43.82-1.04,1.85-1.87,2.79.44-.68,1.38.2,1.99,2.19.15.5.29,1.09.37,1.69-.2.22-.49.4-.88.55-.77.28-1.95.39-3.31.21.33-.27-.12-1.31-.42-2.32-.3-1.01-.48-1.98.01-2.13-.54.26-1.16.54-1.89.8-.36.13-.75.26-1.17.38l-.64.18c-.24.06-.67.09-1,.14l-8.42,1.08c4.17-.27,1.07-3.25-2.49-4.78,1.62.96-14.19-1.64-18.61-1.72l6.87,1.69c-18.48-2.65-18.91,3.67-37.3,1.54,2.32-.62,6.04-4.6-3.26-6.13-4.5,1.61-20.05,8.12-36.52,8.15l-3-1.55-12.65.13c8.13-2.49,30.67-7,42.86-8.27-6.84-1.72-1.78-1.64-12.19-2.67-3.55-1.55,5.85-1.1,8.91-.83l-24.12-3.42c.81,2.63-18.77.49-18.07,2.71l26.56.25c.4,1.3-3.58,2.66-9.81,3.42-3.11.38-6.78.61-10.75.61-1.98,0-4.04-.06-6.13-.19-1.05-.07-2.1-.15-3.17-.25-.53-.06-1.06-.11-1.6-.17l-1.71-.21c-1.31-.31-1.6-.68-1.51-1.18.05-.24.19-.51.44-.78.3-.26.7-.58,1.16-.8,1.06-.45,1.77-.93,2.44-1.33.64-.4,1.09-.73,1.03-.95-.29.08-.76.14-1.37.18-.32.02-.62.04-1.04.04-.55,0-1.14-.05-1.76.02-.88.08-1.86.17-2.89.26-.96.08-1.97.15-2.98.21-4.01.24-7.94.28-8.73-.03l7.31-1.37c-9.61-.97-15.66,3.42-27.21.98-3.98-.16-11.9-3.32-12.59-1.78,6.51,2.95,7.81,12.08,3.49,14.32-1.4-.19-20.92-2.74-25.47-4.19-6.57-2.31,9.82-5.58,4.23-7.56-.24.71-3.86,1.6-5.37,1.88-4.18-.59,1.72-2.21-7.36-1.86-1.51,2.65-18.49-.16-4.29,2.25-4.44.39-6.81.27-9.36.06-.65-.05-1.32-.11-2.03-.16-.46-.03-.93-.05-1.43-.08-.25-.01-.5-.02-.77-.04-.26,0-.51.09-.78.14-.94.21-1.97.44-3.13.71-1,.24-2.12.52-3.38.87,3.65.81-7.6,7.99-16.03,10.96.34-.78-1.82-1.12-2.85-1.26-8.85,2.19-15.71,3.61-22.42,5.03l-2.51.53-1.19.25-.58.12c-.1.02-.19.04-.29.06h-.3c-1.68-.08-3.37-.15-5.12-.22-3.59-.12-7.39-.19-11.64-.19-1.57-.63-9.77-1.37-6.27-2.49-2.44.46-4.69,1.34-9.93,1.41-10.14-2.21,11.69-.37,3.95-3.03-.66,1.5-13.56,2.1-21.02,3.04,2.3,2.29,17.25.42,24.72-.53.04,3.2-12.98,6.55-30.74,7.94-14.12.74-6.12-2.04-8.57-1.6-13.26-.3-18.9,1.04-23.99,2.15-2.54.56-4.94,1.06-8.09,1.27-.39.02-.8.04-1.21.07-.26,0-.52.02-.79.02-.32,0-.64.01-.97.02-1.31.02-2.72,0-4.22-.02-1.51-.03-3.09-.1-4.77-.19-.83-.05-1.7-.11-2.59-.16h-.17c-.06-.01-.12,0-.13-.08l-.12-.34c-.08-.23-.16-.46-.24-.69-.16-.47-.32-.94-.49-1.43-.85-3.29-1.04-5-.88-5.9.15-.89.62-.95,1.16-.8,1.08.34,2.37,1.31,2.51-.18.64,1.34,1.2,2.61,1.71,3.85,1.29.09,2.6.03,3.78.09,1.2.04,2.34.11,3.46.18,1.09.08,2.26.17,3.21.27,3.95.39,7.44.88,11.33.84l-9.6-.94c3.66-.64,11.33-1.14,15.52-.57-1.83-.44-5.55-.68-10.41-.82-2.42-.07-5.16-.11-8.05-.14-1.4-.01-2.86-.03-4.34-.04-.74,0-1.49,0-2.25-.01-.38,0-.76,0-1.14,0h-.57s-.1,0-.14,0l-.05-.13-.11-.27c-1.13-2.89-2.3-5.86-3.47-8.85-1.2-3.1-2.4-6.21-3.57-9.25-2.31-6.08-4.41-11.9-5.96-16.79-1.93-3.14-4.85-8.73-4.44-5.7l2.64,5.92c.8,6.09-6.42-10.55-4.04-2.68-1.09-1.98-2.21-4.03-3.38-6.16l7.53-.37c-1.13,6.86-2.63,14.44-5.78,22.96-.22.15-.43.25-.66.44l-.7.57c-.46.36-.91.7-1.36,1.01.8-.62,3.52-7.66,3.9-11.17-.14,1.29-.71,3-1.46,4.95-.77,1.99-1.64,3.94-2.73,6.81-1.02,2.65-1.95,5.17-2.64,7.6-2.48.07-4.51.38-6.04,1.04,1.87.23,3.79.4,5.79.6l1.52.14c.16.06.17-.09.22-.18l.14-.3.27-.6,1.11-2.46c-.16.76-.33,1.53-.49,2.32-.08.4-.17.8-.25,1.21l-.13.62c-.03.09-.02.24-.09.28l-.28.03c-1.51.19-3.06.39-4.64.59-1.61.23-3.37.36-5.18.52-.92.07-1.85.15-2.79.22l-.67.05-.48.05-.96.1c-5.14.53-10.54.84-15.96.48,4.93,1.98,2.5-.2,10.2,2.15-1.67-.73-.77-1.06,1.35-1.21,1.06-.07,2.42-.1,3.92-.1,2.04.01,4.27.03,6.45.04,1.3,0,2.61.04,3.83,0,1.21-.05,2.38-.09,3.46-.13,1.07-.05,2.07-.1,2.96-.15,1.12.27,1-.94,1.22-1.51.3-1.3.39-2.07.17-2.1-.22-.04-.72.71-1.63,2.19.72-1.02,1.33-2.22,1.95-3.42.61-1.21,1.18-2.47,1.71-3.79.53-1.32,1.04-2.67,1.53-4.06.23-.64.54-1.54.66-1.84.16-.43.32-.86.49-1.3,1.3-3.5,2.64-7.3,5.27-11.91-.75.12-2.31,3.14.64-5.48-.07-.45-.04-1.45,0-2.08.1-.26.14-.35.23-.57-.08.17-.14.29-.22.46.01-.41,0-.45-.08.17-.91,1.99-1.76,3.57-2.33,4.15-.07-1.51.3-3.93.87-6.74l-12.05.59c2.7,5.39,5.7,12.6,7.45,15.49,1.66,5.15-1.57-1.8-1.2,1.22l3.83,6.34c-1.19,1.25,2.78,14.33-2.7,2.83l4.09,10.69c.19,1.13,1.41,4.73,2.44,7.76.53,1.59,1.13,3.14,1.74,4.72.62,1.57,1.22,3.18,1.88,4.7,3.31.09,6.59.17,9.71.13,1.55-.02,3.05-.05,4.47-.1.35-.01.7-.03,1.04-.04.31-.01.76-.03.89-.04.38-.04.75-.07,1.11-.11,5.4.4,13.63-1.71,8.93-.46l17.94-.9.17.42c17.7.33,36.45-2.6,56.69.54,2.98-.2,6.01-.43,9.54-.54.44-.01.89-.03,1.35-.04.57,0,1.16-.02,1.76-.03.77-.01,1.55,0,2.35-.05.77-.2,1.57-.4,2.37-.61.55-.14,1.11-.28,1.68-.42.53-.12,1.07-.25,1.62-.38,1.11-.25,2.27-.51,3.49-.76l2.26.96c7.28-2.41,22.63-4.3,25.42-6.64,2.25.46,5.64.16,9.66-.59,2.01-.38,4.18-.86,6.44-1.43l.43-.11.21-.05s.03,0,.05,0c.04,0,.08-.02.12-.04.08-.03.16-.04.25-.03.96-.02,1.93-.04,2.92-.06,9.93-.23,20.52-.88,27.25-.56l.5-1.96c9.26.06,18.15-.54,29.64-1.4l-.71-1.72c4.95-.74,11.33-.46,18.42-.05,3.55.21,7.28.45,11.1.62.96.04,1.92.08,2.88.11,1.33.03.68.05,2.01.2,1.93.25,3.88.46,5.83.64-.56.27-1.83.26-3.3.1-.74-.08-1.52-.2-2.3-.34l-.58-.11c-.2-.04-.41-.08-.44-.1-.15-.06-.31-.12-.46-.16.12.05.24.12.36.19l.17.1.43.12c.58.16,1.15.31,1.74.45,1.16.28,2.34.53,3.52.74,2.36.43,4.76.73,7.17.95,4.83.44,9.73.55,14.58.62,9.7.15,19.2.15,27.51,2.34,4.28-.18,7.31.33,10.22,1.03-.39-.04-.75-.04-1.05-.02.43.06,1.07.13,1.73.19,1.83.46,3.71.98,5.76,1.44-1.72-.57-3.38-1.06-4.83-1.36,3.25.29,8.2.57,13.08.65l1.88,1.93c.39.02.71.04,1.12.06,4.67,1.1,3.9-.44,1.5-1.99,2.46-.04,4.73-.16,6.5-.4,3.56,3.15,12.77.34,17.72,3.79,1.7-.55,7.8-.22,13.84-.08.75.01,1.51.03,2.25.04,1.06.04,2.1.07,3.11.1,2.03.05,3.9.07,5.5.03,3.19-.1,5.26-.44,5.55-1.15.47.43,2.48.81-.93.5l1.37.2.69.1.34.05c.06,0,.12.02.17.02l.04-.15c.23-.83.46-1.67.69-2.5.46-1.68.9-3.38,1.31-5.09.39-1.73.74-3.47,1.03-5.17.14-.85.27-1.69.38-2.52.08-.71.12-1.27.15-1.9l2.53-1.79-.24-12.15c1.24-3.02,2.19-5.25,2.82-5.92l-9.05,1.06c.09.95-.21,1.12-.97.47l11.07-1.29c.18.6.26,1.77.27,3.5.11-1.51.21-2.86.17-3.41l-11.91,1.39c7.38,11.34,5.74,10.42,13.55,21.49l-1.49-.07c.59,1.19,1.33,2.44,2.19,3.85,1.05,1.78,2.14,3.63,3.19,5.41.5.86.98,1.7,1.45,2.5.11.2.22.4.33.6l.04.07s.06,0,.09,0h.18s.35-.01.35-.01c.45,0,.9-.01,1.32-.02,1.69,0,3.06.12,4.04.37,4.47.59,9,.88,15.55,1,6.45.13,14.26.09,22.65.05,8.39-.05,17.35-.11,26.09-.05,5.89.05,11.71.09,17.32.13,1.55.01,3.09.03,4.61.04.19,0,.39.01.57,0l-.05-.53-.11-1.06c-.07-.71-.14-1.41-.21-2.11-.13-1.41-.26-2.81-.39-4.18-.1-1.37-.27-2.78-.45-4.19-.55,1.92-.96,1.47-1.26,0-.31-1.5-.53-4.19-.81-7.38-.27-4.48-.58-9.67-1.96-10.08.49-1.85.21-6.05,1.71-1.36-3.33-15-2.74-22.89-6.56-33.01.43-1.84,1.62,3.07,1.79,1.46-.37-1.19-1.46-4.7-1.31-6.34.16-1.61.99,2.12,1.73,4.46-2.86-15.41-5.27-16.63-7.46-17.43-.35-7.98-1.18-11.86-3.37-17.32.18-2.83.05-7.47,1.9,2.09-.8-5.42-4.76-33.11-6.25-33.44.04-.87-.26-2.76-.61-4.61-.18-.92-.36-1.84-.54-2.61-.07-.3-.13-.57-.19-.79-.06-.2-.1-.36-.13-.47-.26-1.99-.49-3.53-.71-4.83-.05-.32-.1-.63-.15-.93,0-.03-.02-.08,0-.1h.11s.22.04.22.04c.15.02.29.04.44.05.57.07,1.11.13,1.64.2,1.06.11,2.14.27,3.42.44.32.04.66.09,1.01.13.51.05,1.04.11,1.61.17,1.34.14,2.82.3,4.49.47l-2.11-.34-1.65-.29c.61-.13,1.23-.21,1.86-.25.7-.04,1.54-.02,2.31.02,1.58.07,3.27.28,5.15.52.95.13,1.95.26,3.01.41.27.04.54.07.81.11l.42.06.21.03c.05,0,.19.07.15-.04-.06-.53-.13-1.08-.19-1.64-.15-1.15-.3-2.36-.47-3.64-.17-1.29-.46-2.75-.73-4.24l.21.37c-.42-3.03-.76-5.47-1.03-7.47-.26-1.81-.48-3.22-.67-4.35-.38-2.26-.64-3.43-.9-4.58-.52-2.32-.98-4.6-2.38-15.52l-.59,1.31c-1.04-.87-1.6-5.71-2.3-11.9-.09-.77-.18-1.57-.27-2.38-.11-.92-.23-1.86-.34-2.82-.15-1.06-.3-2.14-.45-3.22l-.06-.41c.01-.09-.09-.07-.14-.09l-.19-.04-.78-.16-1.59-.32c-1.08-.18-2.16-.36-3.24-.53-.85-.13-1.7-.26-2.55-.39-1.69-.24-3.34-.44-4.93-.59l4.51,1.05c-6.98-.48-19.01-4.74-25.93-5.81-1.49-.33,2.42.12,4.54.31-18.06-3.26-2.48.56-16.05-1.09-2.43-.79,3.38-.71-5.72-2.02-2.24-.48-8.91-1-16.54-1.76-7.64-.75-16.24-1.74-22.4-2.98,2.7.69,5.37,1.38-.95.73-9.65-1.27-25.88-4.78-34.71-5.11-1.21-.25-1.66-.39-1.7-.47-.92-.11-1.99-.23-3.16-.36-.58-.07-1.2-.14-1.83-.22-.37-.04-.91-.14-1.36-.14l-.71.18-.63.17c-2.59.71-5.42,1.48-8.15,2.23-5.47,1.5-10.58,2.95-12.69,3.72-3.55-.04-14.71,2.98-25.02,5.78-2.58.7-5.1,1.38-7.44,2.02-.45.12-.9.24-1.33.36-.18.05-.35-.08-.52-.11-.21-.07-.42-.13-.62-.19-1.04-.34-2.02-.66-2.91-.96-3.58-1.21-5.83-2.11-5.66-2.5l-21.71-7.2.62.02c-13.81-4.79-18.84-6.05-23.86-7.27-.8-.3-1.22-.48-1.47-.6-.3-.14-.29-.17-.13-.16.13.02.39.06.63.1.22.04.42.08.5.08-.33-.12-.65-.23-.97-.35-.44-.15-.87-.31-1.3-.45l-.64-.21c-.21-.03-.43.1-.64.14-.42.12-.84.24-1.25.36-1.17.33-2.27.65-3.32.94-2.05.59-3.89,1.12-5.56,1.6-3.34.97-6.05,1.79-8.64,2.62-5.18,1.66-9.9,3.35-18.32,6.45l-1.99-.13c-2.26.89-9.74,2.85-19.14,5.39-.84.24-1.69.48-2.55.72-.91.24-1.75.56-2.65.85l-.67.22s-.13.02-.15.07l-.02.17-.05.35c-.07.46-.13.93-.2,1.4-.14.93-.24,1.92-.37,2.89-.1.77-.2,1.55-.3,2.34-.07.59-.14,1.18-.21,1.77-.13,1.19-.24,2.39-.33,3.73l-.06,1.03-.02.27v.07s-.02-.03-.03-.04l-.06-.09-.25-.37c-.33-.49-.66-.96-1.01-1.43.04-.14.13-.33.49.06-.67-.89-1.47-2.29-2.31-3.47-.42-.63-.83-1.28-1.24-1.94l-.63-1.03-1.29-2.26c-.64-1.05-1.22-2.21-1.91-3.2l-1.01-1.54-.25-.39c-.12-.06-.3-.03-.44-.05l-.91-.05c-1.21-.07-2.46-.11-3.71-.14l-1.51-.06-1.21-.06c-3.23-.16-6.41-.32-9.47-.47-12.24-.6-22.62-.94-26.94,1.01l-15.56.84c10.06.26,9.31.68,7.08,1.16-2.23.48-5.94,1.02-1.8,1.37-1.99.06-4.21.01-6.42-.1-2.22-.11-4.43-.3-6.14-.47-3.41-.35-4.87-.73.81-.94.63.06,1.27.13,1.89.2.41-.28.28-.5-.34-.68-.63-.19-1.72-.31-3.15-.37-.72-.03-1.52-.06-2.39-.07-.44,0-.89-.01-1.35-.02-.11,0-.24-.01-.34,0l-.02.34c-.02.23-.03.46-.05.69-.12,1.89-.27,3.95-.36,6.14-.09,2-.19,4.03-.28,5.94-.09,1.58-.18,3.07-.28,4.34-.21,2.54-.48,4.22-.88,4.08-.67,19.79-1.69,39.32-2.75,58.54-1.05,19.22-2.13,38.12-2.78,56.66l2.44-4.21-.25,6.47-.1,4.08c-.26.93-.74,1.21-1.09.68-.34-.53-.62-1.7-.59-3.9-.64,1.06-.32,2.64.07,4.77.12.57.24,1.12.35,1.62.07.28.13.55.19.8.02.11.1.31.06.34-.05.03-.09.05-.14.08-.36.2-.6.4-.54.55-2.9-.93-3.95-1.47-4.17-1.82-.21-.36.38-.56,1.03-.7,1.35-.27,2.7-.41,1.62-.7l-2.83-.49.78.46c-1.08.24-1.85.58-3.08.68-.15.01-.32.02-.49.02h-.14s-.24-.03-.24-.03c-.16-.02-.33-.04-.5-.06-.68-.08-1.42-.19-2.27-.34-1.68-.29-3.75-.73-6.45-1.38-6.74-2.03-3.18-2.23-5.86-2.94.05-.16-.84-.45-4.12-1.02l-4.86-1.2-.85-.22c-.13-.22-.14-.57-.22-.85l-.36-1.75c-.19.57-.36,1.22-.5,1.95-.07.36-.14.75-.2,1.15-.03.37-.24.95.05,1.05h-.23s-.11-.01-.11-.01c-.02-.02-.03-.05-.04-.08l-.15-.34c-.1-.23-.2-.47-.29-.71-.18-.48-.35-.98-.49-1.46-.34-1.15-.63-2.16-.84-2.85-.29-.95-.51-1.45-.68-1.22-.08.12-.15.41-.21.92-.03.26-.06.57-.08.93-.03.36-.04.84-.09,1.17.02-.15.04-.26.05-.45,0-.2,0-.4,0-.62,0-.43-.03-.89-.06-1.38-.07-.98-.18-2.09-.34-3.3-.32-2.42-.8-5.26-1.41-8.37-1.21-6.21-2.88-13.49-4.59-20.63-.4-1.66-.8-3.3-1.19-4.93-.13-.51-.25-1.02-.38-1.53-.07-.13.02-.25.06-.37l.14-.36.28-.71c1.17-2.98,2.28-5.8,3.27-8.31,2.13-5.38,3.8-9.44,4.65-10.92,2.49-9.9,6.21-19.18,10.9-30.63-1.47,2.72-4.03,3.69.15-6.14,1.19,2.58,3.41-1.8,6.06-7.69,1.32-2.95,2.75-6.27,4.22-9.29.48-1.02.96-2.01,1.42-2.98.51-1.06,1.02-2.09,1.54-3.09,1.03-2,2.07-3.88,3.12-5.54-1.66,2.9-1.39,1.51-.4-1.53.5-1.53,1.19-3.5,1.97-5.66.39-1.08.8-2.21,1.22-3.35l.16-.43.08-.22c-.06-.01-.16,0-.23,0h-.97c-.64,0-1.29,0-1.93,0-5.13.02-9.96.03-12.62.35-2.65.28-2.75.69.76,1.34-5.63-.14-5.8-.51-5.5-.95.26-.44,1.14-.96-3.91-1.4-10.6.83-22.28.65-34.58.4-12.3-.26-25.23-.57-38.34-.2-.41.45,3.98,1.12-1.64,1.84l-13.83-2.09c-5.17.29-4.76,2.55-14.22,1.16,1.34.34,3.33.87-.14,1.03-6.42-.2-12.87-.3-19.35-.33-3.24,0-6.49,0-9.74,0l-5.3.04c-2.35,0-4.67.04-6.97.1h-.43c-.06.02-.17-.02-.19.04l-.06.21-.23.83-.46,1.66c-.32,1.1-.62,2.22-.88,3.38l-1.02,4.29c-.35,1.46-.7,2.92-1.05,4.38l-.54,2.27-.07.29c0,.09-.03,0-.05-.04l-.06-.15-.25-.59-.5-1.2-2.05-4.9-2.83-6.77-.69-1.55-.34-.78-.09-.19c-.03-.06-.04-.15-.13-.13l-.42-.02c-1.13-.04-2.23-.13-3.39-.12l-5.75.07c-6.59.06-13.17.12-19.75.17-13.15.06-26.28-.02-39.31-.14,7.06.22,2.35.38-3.04.5,3.51.02-.08.48.61.72-7.27-.14-14.55-.23-21.82-.24-1.99.32-7.84.44-13.48.56-5.64.11-11.06.25-12.2.42l6.91-.19c-4.6.31-1.38.46,2.82.74,4.2.27,9.37.67,8.7,1.03,5.15-.25,11.93.05,19.54.45,7.61.37,16.04.87,24.48.23,3.73.3-3.18.34-1.19.64,4.28-.43,9.45-.5,19.03-.1l-1.08.13c6.73.07,12.49.16,17.83.29,2.67.07,5.23.14,7.75.21,2.47.08,4.9.16,7.35.24.69-.02,1.36,0,2,.06.42-.11.43.36.55.67.1.34.22.66.35.97,1.33,3.27,2.71,6.66,4.17,10.24,1.66,4.04,3.42,8.31,5.31,12.9.97,2.34,1.98,4.76,3.02,7.28l.2.48.02.06s.01-.03.02-.05l.03-.12.07-.25.28-1c.19-.67.38-1.35.57-2.03.39-1.38.78-2.79,1.19-4.22-.47.53-.9.96-1.31,1.3,2.53-9.02,3.28-10.67,4.72-15.08.45-3.11.17-2.82-.39-1.12-.56,1.72-1.44,4.97-2.33,8.23-.89,3.26-1.78,6.54-2.32,8.13-.55,1.61-.7,1.41-.26-1.77.91-1.63,2.49-6.68,4.4-13.35.47-1.68.97-3.44,1.48-5.25.13-.46.25-.92.38-1.38l.14-.51.07-.27c.09-.36.18-.73.26-1.1.08-.37.2-.73.29-1.09l.15-.54.08-.27c.04-.07,0-.24.14-.19.78.02,1.57.06,2.33.05h1.18c.69.01,1.38.02,2.06.04,1.36.03,2.7.06,4.01.08,2.62.06,5.09.14,7.31.26,4.44.24,7.86.62,9.31,1.29,9.99.15-2.93-1.33,7.06-1.2l2.65.74,2.53-.89c6.55.22,9.86,1.17,10.1,1.8-1.59-.09-4.52.11-6.22.14,8.5,1,23.96.04,26.87.35l-9.6-.59c13.64-.19,28.78.04,43.81.15,7.51.06,15,.07,22.25-.01,3.63-.05,7.2-.11,10.68-.23.87-.03,1.74-.06,2.6-.09.26,0,.34-.02.45-.03l.33-.04.66-.08c.94-.12,1.86-.24,2.77-.35-.22-.21-.48-.41-.77-.62,3.17-.36,5.56-.38,7.3-.39.04,0,.13-.02.14.02l-.06.15-.13.3c-.09.2-.17.39-.25.57-.17.38-.34.73-.5,1.07-.33.69-.66,1.33-.99,1.96-.67,1.27-1.3,2.48-2.03,4.08-.17.4-.36.83-.56,1.3-.33.81-.69,1.69-1.08,2.63-.76,1.9-1.62,4.09-2.59,6.68l.15-.8c-1.03,4.35-2.92,9.95-5.25,15.53,1.34-5.47-5.4,9.15-3.48,2.03-6.91,20.74-3.05,10.4-6.01,24.74l-2.33,2.65c-.85,4.95-.48,5.54-4.3,15.89,2.43-8.77-4.3,5.87-1.76-4.04-.69,1.28-1.33,2.53-1.94,3.75-.3.61-.59,1.21-.88,1.81-.14.3-.28.59-.42.89l-.2.44-.28.63c-.38.88-.75,1.75-1.12,2.61-.18.43-.35.86-.52,1.28l-.26.63-.13.32-.06.16.04.16c.39,1.75.79,3.45,1.2,5.09.15.58.3,1.16.44,1.73.14.52.28,1.04.42,1.55.29,1.01.57,1.99.85,2.94.58,1.89,1.13,3.67,1.65,5.35,2.11,6.72,3.73,11.95,3.09,17.57,5.69,9.57-2.83-19.92-.77-14.29-.1-5.1,4.44,7.96,5.8,15.11.41,1.8.54,3.53.57,5.39,0,.95,0,1.92,0,2.96.05,1.29.12,2.72.24,4.33.12,1.61.27,3.41.5,5.44.03.25.06.51.09.77l.02.2c0,.07,0,.14.08.14l.33.12c.45.16.9.32,1.37.49.95.33,1.96.67,3.05,1.01,1.09.35,2.26.7,3.5,1.07,1.07.31,2.2.63,3.37.97,1.86.54,3.91,1.06,6.18,1.57-1.8-.43-1.98-.21-3.78-.63,3.3,1.19,6.69,1.67,10.26,2.25,1.78.29,3.61.61,5.5,1.06.96.23,1.86.47,2.91.79,1.48.42,3,.88,4.61,1.42,3.53-.22,7.3.66,10.64,1.36,1.65.35,3.14.64,4.18.68.26,0,.49,0,.69-.02.1-.01.19-.03.27-.06.04-.01.08-.02.11-.04-.02-.09-.04-.17-.06-.25-.16-.67-.38-1.3-.67-1.9v.73s-.01.37-.01.37c0,.02.01.08-.01.08l-.09-.02-.17-.03-1.37-.27-2.75-.54-5.57-1.1-10.95-2.19c1.47.21,2.92.43,4.39.64,1.61.22,3.19.41,4.73.58,2.89.3,5.86.62,9.07.96.38.05.76.09,1.14.14.28.14.17-.22.18-.44l-.03-.71c-.03-.92-.06-1.87-.1-2.83-.05-1.89-.07-3.78-.06-5.72,0-1.96.05-3.96.16-6.08.03-.53.06-1.07.09-1.62.04-.52.07-1.04.11-1.58.08-.94.17-1.91.28-2.9.12.31.24.85.37,1.52.06.34.12.71.19,1.11.06.4.12.78.18,1.4.22,2.26.42,5,.56,7.29.22-1.48.32-3.03.35-4.58.02-.78.02-1.55.01-2.33v-1.11s-.04-.85-.04-.85c-.07-2.27-.14-4.56.29-6.96.62.36.93,1.84,1.08,4.01.08,1.09.11,2.35.13,3.73-.02,2.03-.04,4.24-.07,6.56-.03,4.76-.27,9.73-.34,14.75v.94s-.02.47-.02.47c.03.12-.08.05-.15.05l-.22-.04c-.57-.11-1.14-.21-1.71-.32-1.13-.19-2.24-.38-3.31-.56-2.16-.34-4.2-.61-6.1-.79,1.99.73,4.88,1.39,7.88,1.98.74.14,1.5.28,2.26.43l1.12.2.56.1.28.05c.08,0,.23.09.19-.07,0-1.63,0-3.22-.01-4.69,0-2.9.02-5.19.19-6.19.17-.98.5-.74,1.08,1.85-.35-1.82-.62-3.59-.82-5.34-.19-1.74-.3-3.46-.34-5.22-.02-.88-.03-1.76-.02-2.66.01-.73.02-1.47.04-2.23.04-1.22.11-2.49.19-3.79.32-5.22.72-11.07-.45-17.4l1.46.87c-.2-2-.82-6.15-.72-9.81l1.79,6.69c-1.44-10.24,1.68-19.63.91-29.43-.2,20.49-1.76,4.56-2.93,13.19-1.46-25.31,3.93-14.43,3.48-42.74.17,3.84-.93,14.36-1.5,8.35.34-5.38.91-12.48,1.62-15.77-.14-18.75-1.35,2.84-2.08-5.15,1.62-6.34-.54-9.22-.9-17.45l1.25-.03c.49-10.67-.13-12.1-.72-13.27-.15-.29-.29-.57-.42-.96-.13-.28-.23-.56-.29-1.06-.07-.49-.09-1.16-.07-2.07,0-.46.02-.97.05-1.55,0-.14.02-.29.03-.44v-.23c.03-.07,0-.19.11-.15.34.02.71.03,1.1.05l-.43.21-.2.1c-.07.03-.15.04-.08.21.13.51.27,1,.4,1.46.28.92.55,1.71.79,2.36-.03-.72-.11-1.53-.19-2.36l-.06-.63c.15-.04.34-.05.51-.08l1.09-.14c-.07.43-.03.87.1,1.31.68-.32,1.54-.42,2.34-.49.38-.03.76-.05,1.12-.07.48-.02.95-.05,1.41-.07.92-.04,1.81-.07,2.69-.09,3.55-.07,7.07.01,12.41.08-2.48-.71,1.4-1.96,10.86-2.09,6.45.52-3.61,1.02,9.8.68-3.03.65-6.34,1.53-12.18.69-.6.35-2.99.7-3.6,1.05,6.95.56,17.46-.22,22.32-.31-1.87,0-4.1,0-5.25-.12l9.72-.85,4.86-.4c.48-.05.79-.07,1.23-.14l.64-.1.16-.02s.07.06.1.1l.19.22c.32.8.22.94,0,.86-.11-.04-.26-.14-.42-.25-.08-.06-.16-.12-.24-.18-.13.04-.27.08-.4.12.1-.01.2-.02.3-.04.06-.02.09,0,.11.05l.08.1c.12.13.23.26.35.38.12.13.22.28.34.42l.18.23.09.12.21.28c.28.39.57.78.87,1.2l.23.32c.11.16.22.32.33.48.23.34.46.69.7,1.04.95,1.43,1.98,3,3.15,4.83-.78-.58-1.21-.59-2.4-1.87-.59-.65-1.38-1.63-2.53-3.21-.13-.19-.27-.38-.42-.58-.1-.12-.2-.25-.3-.38-.2-.27-.42-.56-.66-.87-.12-.16-.24-.32-.36-.49l-.11-.13c-.06-.08-.13-.16-.2-.25l.15.2.08.11.19.26.67.95.33.47.17.25.28.42,4.35,6.55,4.21,6.34.51.77.49.69.97,1.38,1.92,2.73c.53,1.08,2.58,4.56,4.34,7.58l.16.28c.05.06.13.28.13.12.03-.16.06-.32.09-.48.06-.31.12-.61.17-.88.11-.54.2-.99.27-1.28.15-.58.21-.52.11.68.61-4.27,1.22-9.44,1.81-14.89.28-2.7.57-5.49.86-8.35.14-1.4.28-2.81.42-4.24l.1-1.06.04-.47v-.07s0-.29,0-.29c0-.1-.02-.22-.03-.33l-.02-.18v-.09s.03-.03.05-.04c.17-.1.34-.22.56-.3l.36-.14,1.22-.44,2.45-.87c3.28-1.15,6.59-2.23,9.86-3.18.64-.33,1.96-.86,4.69-1.83,12.21-3.81,23.17-6.73,37.41-12.01l.53-.11.26-.06s.06,0,.09,0c.12.01.22.01.32.02.1.03.19.12.27.17l.12.1s.1.05.18.09l.25.11,3.96,1.72c11.37,3.46-10.75-4.6,8.17,1.19,13.39,4.09,4.75,2.28,9.35,4.01,6.76,1.75,18.51,4.76,30.53,9.38-4.09-1.19-7.22-2.35-11.02-3.53ZM662.4,20.53c-2.82-.3-8.47-.77-10.47-1.44,3.29-.19,5.72.51,10.47,1.44ZM718.96,158.04c-.73-2.02-1.01-5.28-1.11-8.99.5,2.63.92,5.63,1.11,8.99ZM223.97,229.02c.1.15.16.26.25.37.43,1.24.79,2.26,1.08,3.1l.05.16s.09.01.14.02c.1,0,.19.02.28.02.18.01.35.03.52.04.32.03.6.05.84.07.95.08,1.22.1.97.08-.25-.02-1.02-.07-2.16-.14-.25-.07-.69.12-.72-.34-.12-.33-.24-.67-.38-1.03-.26-.72-.55-1.51-.86-2.35ZM218.21,212.56c-.7-1.14-.89-.97-.91-.36.37.35.83,1.21,1.33,2.37.25.58.52,1.25.79,1.96.3.81.61,1.67.94,2.56-.12-.92-.13-1.46-.44-2.48-.3-.99-.83-2.3-1.72-4.05ZM298.09,159.62l2.4.97c-5.73-.85-4.06-.89-2.4-.97Z" fill="#fef6f0"/>
            <path d="M713.56,133.33c.08-.83.26-1.08.45-1.3-.36-1.07-.59-1.06-.45,1.3Z" fill="#fef6f0"/>
            <path d="M434.08,19.56l-.43.13c-.22.12-.33.2-.39.26l.81-.39Z" fill="#fef6f0"/>
            <path d="M417.21,202.53c2.71.26,4.22.6,5.22.95.15-.46-1.09-.84-5.22-.95Z" fill="#fef6f0"/>
            <path d="M206.53,219.84l3.55-.23c.14-.02.32.01.42-.06l.13-.45.25-.89.5-1.77c.66-2.36,1.33-4.68,1.94-7.06-.95,3.42-1.74,5.57-2.39,7.32-.34.85-.59,1.66-.96,2.29-.86-.04-1.69-.07-2.59-.11.52.35,3.67.77-.85.96Z" fill="#fef6f0"/>
            <path d="M127.88,210.27c-1.23.17-2.61.02-3.82.19l.34.65c5.24-.03,8.91-.57,3.49-.85Z" fill="#fef6f0"/>
            <path d="M193.17,214.74c-.67-1.32-5.95-.89-11.85-.68.35,0,.69-.01,1.04,0-1.74,1.8,4.55,1.25,10.8.68Z" fill="#fef6f0"/>
            <path d="M179.96,214.09c-1.82.05-3.67.07-5.45,0-.69.71,2.21.16,5.45,0Z" fill="#fef6f0"/>
            <path d="M211.27,197.38c-.68-2.74-2.31-.97-2.35-2.66-2.8-2.24,8.78,16.58,2.35,2.66Z" fill="#fef6f0"/>
            <polygon points="188.39 210.4 190.51 212.02 193.82 210.72 188.39 210.4" fill="#fef6f0"/>
            <path d="M213.33,180.34l-3.08,8.92c.31-.06.14,1.14-.15,2.59,1.68-5.56,3.79-11.58,3.24-11.5Z" fill="#fef6f0"/>
            <path d="M210.09,191.85c-.88,2.9-1.65,5.67-1.86,7.36.44-1.58,1.37-4.97,1.86-7.36Z" fill="#fef6f0"/>
            <path d="M200.98,209.92l1.46.17.37.04.19.02c.06,0,.15.04.15-.03l.26-.58,1.94-6.27-1.5,4.34-.73,2.11-.09.26c-.06.05-.19,0-.28.01l-.59-.03-1.18-.06Z" fill="#fef6f0"/>
            <path d="M281.06,225.95l10.29-.53c1.05-.64-1.76-1.04-5.59-.78-2.46.45-6.28.69-4.7,1.31Z" fill="#fef6f0"/>
            <path d="M249.95,220.92c2.78.37,2.97.78,4.54,1.38l.31-2.27-4.85.89Z" fill="#fef6f0"/>
            <path d="M279.95,220.31c1.02-.64,14.93-1.89,1.89-1.7-1.04.64-11.35,1.2-1.89,1.7Z" fill="#fef6f0"/>
            <polygon points="433.14 209.07 430.52 209.11 430.91 213.04 433.14 209.07" fill="#fef6f0"/>
            <path d="M570.31,208.73c-12.02-2.23-3.11,1.95-13.95-.36-2.94.56,8.85,1.88,5.86,2.32,7.41-.12,11.19.83,8.09-1.95Z" fill="#fef6f0"/>
            <path d="M562.23,210.69c-1.19.02-2.45.06-3.79.15,2.14,0,3.16-.07,3.79-.15Z" fill="#fef6f0"/>
            <polygon points="28.33 19.73 20.49 19.86 25.55 19.9 28.33 19.73" fill="#fef6f0"/>
            <path d="M13.28,20.57l-1.85-.23-4.71.38c1.77-.06,5.21-.18,6.55-.14Z" fill="#fef6f0"/>
            <path d="M683.67,25.62l.62-.12c-1.17-.42-2.97-.73-6.6-1.34l5.98,1.46Z" fill="#fef6f0"/>
            <polygon points="580.19 13.5 581.97 13.08 578.49 13.28 580.19 13.5" fill="#fef6f0"/>
            <path d="M492.36,11.89c3.46,1.14,7.58,2.31,11.05,3.45-7.6-2.31-11.72-4.57-11.05-3.45Z" fill="#fef6f0"/>
          </g>
        </g>
        <g>
          <path d="M146.94,247.46h18.82v5.32h-11.74v14.78h10.41v5.32h-10.41v15.93h11.74v5.32h-18.82v-46.67Z" fill="#fef6f0"/>
          <path d="M175.75,247.46h6.6l7.04,18.62c2.04,5.26,3.85,10.87,5.41,16.84-.57-3.61-.99-6.87-1.26-9.79-.27-2.92-.41-5.67-.41-8.25v-17.41h7.11v46.67h-6.64l-7.93-21.01c-.73-1.95-1.41-3.96-2.06-6.01s-1.24-4.21-1.79-6.47c-.05-.28-.12-.62-.22-1.03-.1-.4-.22-.87-.36-1.39.07.52.12.97.17,1.34.04.37.08.69.1.95l.38,4.75.37,5.77c.02.32.04.71.05,1.18s.02.99.02,1.57l.37,20.34h-6.98v-46.67Z" fill="#fef6f0"/>
          <path d="M211.83,247.46h18.82v5.32h-11.74v14.78h10.41v5.32h-10.41v15.93h11.74v5.32h-18.82v-46.67Z" fill="#fef6f0"/>
          <path d="M240.64,247.46h9.33c3.86,0,6.73.82,8.61,2.45,2.38,2.12,3.57,5.35,3.57,9.7,0,3.34-.63,6.03-1.89,8.06-1.26,2.02-3.06,3.28-5.39,3.76l9.67,22.7h-7.18l-9.63-22.85v22.85h-7.08v-46.67ZM247.72,268.13c2.75,0,4.68-.56,5.82-1.69,1.13-1.13,1.7-3.03,1.7-5.71,0-1.45-.12-2.69-.36-3.72s-.61-1.86-1.12-2.51c-.51-.64-1.17-1.12-1.97-1.42-.81-.3-1.76-.45-2.88-.45h-1.19v15.51Z" fill="#fef6f0"/>
          <path d="M285.41,269.58h12.86v1.81c0,9.09-.9,15.22-2.69,18.41-1.77,3.26-5.08,4.9-9.94,4.9s-8.59-1.81-10.72-5.44c-2.11-3.63-3.17-9.72-3.17-18.29,0-9.79,1.16-16.31,3.47-19.56,2.18-3.04,5.52-4.56,10.04-4.56,3.45,0,6.14.74,8.07,2.21,1.95,1.49,3.47,3.94,4.56,7.34l-6.6,2.45c-.29-1.23-.62-2.26-.99-3.1-.36-.84-.76-1.49-1.19-1.95-.86-.95-2.16-1.42-3.88-1.42-2.36,0-3.97,1.29-4.83,3.87-.86,2.7-1.29,7.55-1.29,14.54s.44,11.86,1.33,14.36c.88,2.5,2.55,3.75,5,3.75,2.25,0,3.82-.89,4.73-2.66.93-1.89,1.4-4.94,1.4-9.13v-2.21h-6.16v-5.32Z" fill="#fef6f0"/>
          <path d="M308.8,247.46h7.08v46.67h-7.08v-46.67Z" fill="#fef6f0"/>
          <path d="M326.17,247.46h23.14l-15.79,41.17h14.94v5.5h-24.16l15.93-41.35h-14.06v-5.32Z" fill="#fef6f0"/>
          <path d="M357.26,247.46h18.82v5.32h-11.74v14.78h10.41v5.32h-10.41v15.93h11.74v5.32h-18.82v-46.67Z" fill="#fef6f0"/>
          <path d="M386.06,247.46h8.71c2.65,0,4.89.26,6.7.79,1.68.5,3.18,1.4,4.49,2.69,1.97,1.93,3.38,4.45,4.22,7.56.84,3,1.26,7.3,1.26,12.91,0,5.14-.47,9.33-1.4,12.57-.91,3.1-2.41,5.47-4.49,7.1-2.56,2.04-7.16,3.05-13.78,3.05h-5.72v-46.67ZM393.14,288.62c4.31,0,7.19-1.16,8.64-3.48,1.5-2.32,2.25-6.82,2.25-13.51,0-7.19-.71-12.14-2.14-14.84-1.43-2.7-4.05-4.05-7.86-4.05h-.88v35.88Z" fill="#fef6f0"/>
          <path d="M460.52,248.21v5.65c-1.82-.79-3.33-1.18-4.56-1.18-1.68,0-3.12.37-4.32,1.1-1.2.74-2.2,1.87-2.98,3.4-.78,1.53-1.36,3.47-1.74,5.82-.37,2.35-.56,5.12-.56,8.33,0,11.53,3.32,17.29,9.97,17.29,1.16,0,2.55-.32,4.19-.97v5.77c-1.7.85-3.61,1.27-5.72,1.27-10.64,0-15.96-7.72-15.96-23.15,0-8.34,1.3-14.55,3.9-18.62,2.6-4.07,6.57-6.11,11.93-6.11,1.97,0,3.92.46,5.85,1.39Z" fill="#fef6f0"/>
          <path d="M495.86,271.94c0,8.24-1.03,14.1-3.1,17.56-2.06,3.47-5.52,5.2-10.38,5.2-5.1,0-8.7-1.86-10.79-5.59-2.06-3.65-3.1-10.13-3.1-19.44,0-8.3,1.02-14.18,3.06-17.62,2.06-3.47,5.56-5.2,10.48-5.2,4.4,0,7.67,1.34,9.8,4.02,1.41,1.79,2.43,4.34,3.06,7.65.63,3.06.95,7.54.95,13.42ZM488.44,272.6c0-8.08-.41-13.44-1.23-16.08-.82-2.66-2.48-3.99-5-3.99s-4.2,1.22-5.04,3.66c-.82,2.46-1.22,7.4-1.22,14.81,0,6.83.43,11.57,1.29,14.21.88,2.5,2.54,3.75,4.97,3.75s4.02-1.17,4.9-3.51c.88-2.32,1.33-6.6,1.33-12.85Z" fill="#fef6f0"/>
          <path d="M506.35,247.46h18.92v5.32h-11.84v14.75h10.69v5.32h-10.69v21.28h-7.08v-46.67Z" fill="#fef6f0"/>
          <path d="M534.2,247.46h18.92v5.32h-11.84v14.75h10.69v5.32h-10.69v21.28h-7.08v-46.67Z" fill="#fef6f0"/>
          <path d="M562.06,247.46h18.82v5.32h-11.74v14.78h10.41v5.32h-10.41v15.93h11.74v5.32h-18.82v-46.67Z" fill="#fef6f0"/>
          <path d="M590.86,247.46h18.82v5.32h-11.74v14.78h10.41v5.32h-10.41v15.93h11.74v5.32h-18.82v-46.67Z" fill="#fef6f0"/>
        </g>
        <g>
          <path d="M194.34,201.09h-51.44s17.4-168.87,17.4-168.87h131.47l-27.89,80.37,22.85,101.73h-51.04l-21.97-95.92,15.67-42.06h-24.41s-10.63,124.75-10.63,124.75Z" fill="url(#linear-gradient)"/>
          <path d="M391.09,118.52l.65,82.25-52.86,13.55,3.22-182.1h48.08l38.03,86.3-2.05-88.01,47.73-11.52,10.01,181.78h-52.66l-40.15-82.25Z" fill="url(#linear-gradient-2)"/>
          <path d="M541.48,32.22l47.09-13.27,23.56,195.37-120.89-13.54-10.02-181.84,48.23,13.27,10.48,128.28,13.07-.03-11.54-128.25Z" fill="url(#linear-gradient-3)"/>
          <path d="M635.98,68.51l-34.56-4.5-5.49-45.07,121.32,13.27,7.1,43.99-32.91-3.43,21.6,141.54h-56.77l-20.29-145.81Z" fill="url(#linear-gradient-4)"/>
          <path d="M143.83,124l-8.11,76.81H19.01V32.22h106.71l18.11,91.78ZM95.02,152.64l2.47-30.66-8.22-41.59h-22.08v72.25h27.83Z" fill="url(#linear-gradient-5)"/>
        </g>
      </g>
      <path d="M302.46,193.15c5.35-.55,10.7-1.05,16.05-1.52l.77.91c4.51,5.45,7.91,11.96,12.68,17.26l-8.28-26.8-39.75-10.07c5.54,5.83,13.42,13.88,18.52,20.22Z" fill="#f68b42"/>
      <path d="M293.99,214.37l-7.29-31.55-1.05-4.51c4.91,7.96,10.33,13.37,16.17,21.02,5.42-.47,10.85-1,16.27-1.55,5.39,5.92,8.49,9.97,13.79,16.6h-37.89Z" fill="#f68b42"/>
    </g>
  </g>
</svg>