<?xml version="1.0" encoding="UTF-8"?>
<svg id="Layer_2" data-name="Layer 2" xmlns="http://www.w3.org/2000/svg" viewBox="0 0 110.4 110.4">
  <g id="Layer_1-2" data-name="Layer 1">
    <g>
      <circle cx="55.24" cy="55.24" r="10.09" fill="#f68b42"/>
      <path d="M67.39,30.55c-6.42-.39-13.5-.27-19.97-.13-4.04.08-9.12-.03-12.47,2.52-4.63,3.53-4.35,8.96-4.47,14.23-.12,5.38-.12,10.82,0,16.2.12,5.04-.16,10.14,3.97,13.75,3.43,3,8.37,2.77,12.65,2.87,5.41.12,10.87.13,16.28,0,4.29-.1,9.21.13,12.65-2.87,4.17-3.63,3.86-8.83,3.97-13.9.14-6.55.33-13.62-.07-20.14-.51-8.38-4.17-12.02-12.54-12.53ZM55.24,70.8c-8.6,0-15.56-6.97-15.56-15.56s6.97-15.56,15.56-15.56,15.56,6.97,15.56,15.56-6.97,15.56-15.56,15.56ZM71.42,42.7c-2.01,0-3.64-1.63-3.64-3.64s1.63-3.64,3.64-3.64,3.64,1.63,3.64,3.64-1.63,3.64-3.64,3.64Z" fill="#f68b42"/>
      <path d="M85.42,0H24.98C11.18,0,0,11.18,0,24.98v60.44c0,13.8,11.18,24.98,24.98,24.98h60.44c13.8,0,24.98-11.18,24.98-24.98V24.98c0-13.8-11.18-24.98-24.98-24.98ZM85.45,64.13c-.15,6.19-.34,11.67-4.96,16.32-4.62,4.64-10.1,4.85-16.28,5-5.95.15-11.99.15-17.94,0-6.15-.16-11.61-.36-16.22-4.95-4.65-4.63-4.87-10.1-5.02-16.3-.18-6.99-.35-14.62.07-21.58.66-10.96,6.56-16.88,17.53-17.54,6.96-.42,14.59-.25,21.58-.07,5.61.14,11.03.3,15.45,4.24,5.37,4.78,5.62,10.32,5.79,17.08.15,5.9.15,11.89,0,17.79Z" fill="#f68b42"/>
    </g>
  </g>
</svg>