<?xml version="1.0" encoding="UTF-8"?>
<svg id="Layer_2" data-name="Layer 2" xmlns="http://www.w3.org/2000/svg" viewBox="0 0 110.4 110.4">
  <g id="Layer_1-2" data-name="Layer 1">
    <path d="M85.42,0H24.98C11.18,0,0,11.18,0,24.98v60.44c0,13.8,11.18,24.98,24.98,24.98h60.44c13.8,0,24.98-11.18,24.98-24.98V24.98c0-13.8-11.18-24.98-24.98-24.98ZM85.69,49.29h-.74c-3.61-.22-7.2-.95-10.53-2.35-2.03-.85-3.91-1.98-5.75-3.17-.04,6.83.05,13.67,0,20.5-.02,3.2.07,6.22-.72,9.35-3.47,13.88-19.17,20.87-31.84,13.96-4.98-2.71-8.85-7.49-10.5-12.93-1.08-3.56-1.2-7.95-.32-11.57,2.57-10.57,12.92-17.99,23.83-16.64.26.03.88.09,1.09.17.03.01.04.02.05.05.01.03.04.37.04.44.05.89,0,1.88,0,2.78-.02,2.38-.11,4.77-.14,7.16-.01.86.01,1.73,0,2.59-2.82-.91-5.99-.68-8.52.88-2.58,1.59-4.59,4.54-4.73,7.63-.11,2.55.3,4.52,1.79,6.61,3.51,4.9,10.38,5.66,14.84,1.57,1.18-1.08,2.79-3.4,2.93-5.02.19-2.27.15-4.67.17-6.95.13-12.1.02-24.23.07-36.34.01-2.61-.04-5.22.03-7.83,1.16-.06,2.32-.02,3.48-.03l.12-.04h7.81c.07.58.1,1.17.18,1.76.98,7.37,5.35,12.58,12.47,14.69,1.62.48,3.11.7,4.77.95.07,0,.08,0,.12.07v11.71Z" fill="#f68b42"/>
  </g>
</svg>