<?xml version="1.0" encoding="UTF-8"?>
<svg id="Layer_2" data-name="Layer 2" xmlns="http://www.w3.org/2000/svg" viewBox="0 0 110.4 110.4">
  <g id="Layer_1-2" data-name="Layer 1">
    <g>
      <polygon points="48.71 64.93 65.54 55.17 48.71 45.51 48.71 64.93" fill="#f68b42"/>
      <path d="M85.42,0H24.98C11.18,0,0,11.18,0,24.98v60.44c0,13.8,11.18,24.98,24.98,24.98h60.44c13.8,0,24.98-11.18,24.98-24.98V24.98c0-13.8-11.18-24.98-24.98-24.98ZM87.64,56.51c-.06,3.97-.22,8.15-.88,12.08-.8,4.81-2.84,7.52-7.83,8.3-2.76.43-5.57.53-8.36.67-9.85.48-19.8.48-29.65.05-3.28-.14-6.86-.22-10.07-.83-6.37-1.2-7.12-6.18-7.65-11.72-.59-6.24-.6-12.92-.05-19.17.38-4.37.71-9.13,5.04-11.39,2.51-1.32,7.6-1.46,10.5-1.62,4.66-.25,9.37-.35,14.02-.4h5.02c.05.08.19.05.28.05,5.18.05,10.35.11,15.51.46,2.63.18,6.59.34,8.88,1.61,3.06,1.7,3.91,4.32,4.42,7.6.58,3.75.72,7.66.77,11.45,0,.09-.03.23.05.28-.01.86.01,1.73,0,2.59Z" fill="#f68b42"/>
    </g>
  </g>
</svg>